<svg width="50" height="50" viewBox="0 0 50 50" fill="none" xmlns="http://www.w3.org/2000/svg">
<circle cx="25" cy="25" r="25" fill="#1C1D1E"/>
<path d="M36.5279 27.4859C36.7409 26.6897 36.9159 26.062 37.0757 25.4801C36.6497 24.7069 36.0106 24.4313 35.2879 24.3165C33.949 24.1021 32.6025 23.9184 31.294 23.727C31.3093 23.7117 31.3625 23.6428 31.4842 23.505C31.218 23.1911 30.83 23.0916 30.4648 23.0916C28.8901 23.0839 27.361 22.7547 25.8091 22.5403C25.2766 22.4638 24.7212 22.3107 24.105 22.5633C24.1431 22.7777 24.1811 22.9537 24.2191 23.1605C23.6866 23.3595 23.5421 22.7011 23.1237 22.5557C21.8532 23.0227 20.4991 23.038 19.1602 23.2217C18.8179 23.2676 18.4679 23.3136 18.1256 23.3595C17.981 23.3748 17.7908 23.4361 17.6995 23.3672C16.7714 22.6399 16.2389 23.3212 15.6836 23.9184C15.5847 24.0256 15.4858 24.1404 15.3641 24.2782C14.7175 24.2782 14.0556 24.2476 13.4014 24.2935C13.0362 24.3165 12.9221 24.6151 13.0514 25.0514C14.1317 25.1203 15.2423 25.2964 16.3302 25.2275C17.7984 25.1356 19.2591 25.2275 20.7197 25.2581C21.5261 25.2734 22.3325 25.2352 23.1389 25.1892C24.5767 25.105 25.946 25.5108 27.3306 25.7481C27.7261 25.817 28.1141 25.9931 28.5173 26.016C30.6018 26.1538 32.5949 26.7587 34.6185 27.1721C35.2194 27.2792 35.8204 27.3634 36.5279 27.4859Z" fill="white"/>
<path d="M24.3792 32.7259C24.3639 32.977 24.295 33.2432 24.341 33.4791C24.5094 34.2855 24.5094 35.0766 24.341 35.883C24.2874 36.1493 24.4099 36.4536 24.4711 36.8492C25.3439 36.2634 25.8415 35.6624 25.8109 34.6354C25.7496 32.6118 25.7573 30.5883 25.7956 28.5647C25.8109 27.7127 25.9716 26.8606 26.0482 26.0086C26.1094 25.3544 26.1094 24.7001 26.186 24.0459C26.3697 22.5396 26.5688 21.0333 26.8138 19.5423C26.9286 18.85 27.1659 18.1729 27.3114 17.4807C27.5487 16.3928 27.6712 15.2821 28.1612 14.2627C28.2224 14.141 28.1841 13.966 28.1918 13.7454C27.809 13.4791 27.4033 13.2053 27.12 13.0075C26.3315 12.8934 25.8951 14.1334 25.2367 13.1064C24.5859 14.0573 24.318 14.6659 24.2108 15.5484C24.0807 16.6515 23.9888 17.7621 23.8816 18.8728C23.8051 19.6792 23.7362 20.4856 23.6443 21.2844C23.606 21.5811 23.4759 21.8397 23.7515 22.1212C23.9505 22.319 23.8663 22.6005 23.6366 22.7831C23.185 23.1482 23.1084 23.5742 23.2385 24.1372C23.3993 24.8066 23.2079 25.5369 23.6826 26.1684C23.7897 26.3129 23.6902 26.6628 23.606 26.8911C23.3227 27.6366 23.361 28.306 23.7055 29.0668C24.0041 29.7362 24.073 30.5426 23.8357 31.2958C23.6366 31.9348 23.8969 32.376 24.3716 32.7412C24.3639 32.6347 24.3639 32.5358 24.3639 32.4369C24.3792 32.5358 24.3792 32.627 24.3792 32.7259Z" fill="white"/>
<path d="M24.3792 32.726C24.3792 32.6271 24.3792 32.5358 24.3715 32.4369C24.3715 32.5358 24.3792 32.6347 24.3792 32.7412C24.3945 32.7488 24.3792 32.726 24.3792 32.726Z" fill="white"/>
</svg>
