<svg width="41" height="39" viewBox="0 0 41 39" fill="none" xmlns="http://www.w3.org/2000/svg">
<path d="M23.8055 27.3394L23.3738 26.8573C23.515 27.0303 23.6614 27.1964 23.8055 27.3394Z" fill="white"/>
<path d="M22.088 24.8088C22.081 24.7831 22.058 24.742 22.0125 24.6707C22.0328 24.7165 22.0592 24.7638 22.088 24.8088Z" fill="white"/>
<path d="M24.2971 28.1539L24.2794 28.1264C24.1952 28.012 24.2252 28.0583 24.2971 28.1539Z" fill="white"/>
<path d="M24.3449 27.9214C24.3175 27.8499 24.2734 27.7546 24.1694 27.5849C24.234 27.7259 24.2906 27.8352 24.3449 27.9214Z" fill="white"/>
<path d="M24.7412 22.6249C24.7106 22.675 24.6931 22.7091 24.6931 22.7091C24.7092 22.6786 24.7251 22.6529 24.7412 22.6249Z" fill="white"/>
<path d="M25.6899 21.757C25.6322 21.6441 25.4816 21.7082 25.4064 21.7595C25.3687 21.7864 25.3431 21.8139 25.3187 21.8403C25.1154 22.0932 24.9063 22.3422 24.7437 22.6226C24.8501 22.4428 24.981 22.2775 25.128 22.1276C25.1152 22.1414 25.1071 22.1554 25.0967 22.1693C24.869 22.4281 24.4242 22.9909 24.6886 23.3576C24.7825 23.6438 24.8739 23.9322 24.9628 24.2229C24.909 24.1934 24.8476 24.1044 24.9232 24.3293C25.2733 24.8249 25.3902 26.2447 25.5579 26.8557L25.4879 26.6372C25.5341 26.9593 25.5801 27.2838 25.6249 27.6071C25.6231 27.6178 25.6176 27.6091 25.616 27.615C25.6297 27.6303 25.6434 27.6431 25.6599 27.6512C25.6547 28.0513 25.7449 28.775 25.9121 29.5693C25.9628 29.6565 26.0264 29.9241 26.0921 30.263C26.0671 30.2351 26.0398 30.2046 26.0114 30.1729C26.0393 30.2142 26.0696 30.2557 26.0976 30.2946C26.1506 30.5785 26.2073 30.9072 26.2572 31.226C26.2286 31.1761 26.1999 31.1287 26.1712 31.0789C26.217 31.1019 26.2305 31.0762 26.1787 30.9443C26.0633 30.7184 25.9688 30.5516 25.8858 30.418C25.8619 30.2816 25.8441 30.1902 25.8441 30.1902L25.8647 30.3843C25.6838 30.1006 25.5574 29.9875 25.4034 29.8283C25.2703 29.6184 25.1346 29.4107 24.9977 29.2042C24.9633 29.0407 25.091 29.0863 24.594 28.3474L25.0727 28.9153C24.8092 28.2278 24.6328 28.3858 24.3486 27.9203C24.4163 28.0928 24.3837 28.1152 24.739 28.6243C24.7247 28.7104 24.4368 28.3327 24.3008 28.1528L24.3797 28.2741C24.3694 28.2651 24.3589 28.2585 24.3485 28.2495C23.992 27.739 23.6255 27.2353 23.2528 26.7348C23.2461 26.7248 23.2407 26.7136 23.2375 26.705L23.3764 26.855C23.0515 26.4693 22.7494 26.0655 22.4423 25.6663L22.4649 25.6712C22.4365 25.6395 22.4078 25.6126 22.3804 25.5845C22.2341 25.3956 22.0902 25.2068 21.9426 25.0189C22.0046 25.0525 22.0018 25.0162 21.8118 24.7886C21.9593 24.8257 22.1109 25.0716 22.1978 25.1789C22.3978 25.4227 22.5853 25.6754 22.764 25.9337C22.661 25.7881 22.4866 25.5831 22.4607 25.3984C22.4548 25.3511 22.5046 25.3888 22.5195 25.4029C22.6209 25.488 22.7017 25.5986 22.7828 25.7019C22.7301 25.4771 22.3102 25.1537 22.093 24.8065C22.1166 24.8814 22.0091 24.7971 22.0067 24.8404C22.094 24.7439 21.0829 23.6607 20.9975 23.7007L21.5247 24.2434C21.4994 24.3096 21.2448 24.0712 21.0878 23.9444C19.8642 22.4299 18.5962 20.9322 17.2343 19.5415C17.2792 19.5151 17.4305 19.5921 17.3029 19.391C16.734 18.7301 16.7239 18.8924 16.6275 18.9124C15.1689 17.4163 13.7766 16.0963 12.4733 14.9319C12.4839 14.9156 12.5256 14.924 12.6078 14.9647C12.2047 14.5759 12.3647 14.78 12.3882 14.8573C12.1801 14.6734 11.9742 14.492 11.7718 14.3145C11.7644 14.273 11.7643 14.232 11.9817 14.4008C11.6566 14.0633 11.571 14.0622 11.4909 14.0723C11.0891 13.7257 10.6974 13.3954 10.3155 13.0814C10.2512 13.0019 10.1985 12.9302 10.1643 12.8717C9.80482 12.5902 9.59884 12.4546 9.4661 12.3906C9.25364 12.2197 9.0456 12.0563 8.84096 11.8967C8.94978 11.957 9.0268 11.9817 9.04188 11.9271C8.6174 11.7084 8.2384 11.4306 7.85865 11.1444C7.4314 10.823 7.00022 10.5074 6.56395 10.1964C5.86427 9.69839 5.15543 9.21316 4.43732 8.74309C3.96131 8.43107 3.47997 8.1284 3.00116 7.82346C2.85799 7.72995 2.71342 7.63999 2.57292 7.54181C2.41966 7.43448 2.22459 7.5383 2.08703 7.6272C1.76562 7.83501 1.49027 8.14786 1.29374 8.4747C1.21277 8.60893 1.13581 8.75785 1.1187 8.91489C1.09599 9.1295 1.26707 9.19801 1.42514 9.3056C2.8106 10.2478 4.27919 11.0606 5.6686 11.997C5.95742 12.2481 6.07826 12.309 6.16945 12.3393C6.32865 12.4482 6.48658 12.5582 6.64452 12.6682C6.47899 12.6084 6.33565 12.5836 6.17646 12.5182C6.58003 12.7442 6.74242 12.7954 6.92552 12.8645C7.06829 12.9653 7.20966 13.0695 7.35243 13.1702C7.36753 13.2024 7.3288 13.2051 7.33455 13.232C7.48052 13.3184 7.5957 13.373 7.69924 13.4197C8.08419 13.6989 8.46801 13.977 8.85296 14.2562C8.97223 14.3894 9.16577 14.4881 9.30828 14.5936C9.52721 14.7564 9.7436 14.9215 9.9586 15.0901C10.3899 15.4262 10.8146 15.7704 11.2331 16.1202C11.3055 16.2062 11.3479 16.2689 11.3558 16.3006C11.386 16.2987 11.4312 16.3108 11.4878 16.3332C11.8403 16.6324 12.1913 16.9376 12.5372 17.2473C12.7945 17.5014 13.0491 17.7602 13.3039 18.0167C13.4106 18.312 12.7455 17.559 12.3569 17.3012C13.284 18.1808 13.014 17.8717 13.7794 18.4685C13.9486 18.637 14.2015 18.8403 14.4487 19.0372C14.7484 19.3311 15.0456 19.6272 15.3403 19.9256C15.3136 19.9061 15.2882 19.8854 15.2614 19.8682C15.8861 20.4791 15.4799 20.3012 16.1361 20.8655C16.0672 20.7604 15.9831 20.6231 15.8778 20.4774C16.2223 20.8341 16.5643 21.193 16.9 21.5552C16.9912 21.6723 17.019 21.7366 16.9083 21.6895C17.2112 22.0125 17.4572 22.231 17.5707 22.2939C17.7411 22.4842 17.9102 22.6756 18.0793 22.867C17.8053 22.6759 17.3327 22.1711 17.7836 22.7844L18.3321 23.2464C18.3747 23.3705 19.1026 24.2318 18.9802 24.2637C19.2499 24.5571 19.3271 24.577 19.5556 24.8067C19.7023 25.0777 19.813 25.2779 20.1163 25.5298C19.1096 24.1707 19.4508 24.5441 18.5296 23.4056C18.5427 23.4075 18.5634 23.4255 18.5897 23.4523C19.3897 24.3839 20.1668 25.336 20.9227 26.3002C20.9609 26.4168 20.6675 26.1402 20.5961 26.1218C21.1074 26.8434 21.2705 26.7728 21.699 27.4198C20.897 26.5267 21.9083 27.8016 22.0887 28.1588C22.04 27.9282 21.8621 27.5687 21.4227 26.9427C22.9094 28.8685 24.3232 30.8481 25.5118 32.9745C25.3019 32.8014 25.0894 32.6305 24.8771 32.4572C24.8326 32.3896 24.8037 32.3446 24.8037 32.3446L24.8297 32.4196C24.5136 32.161 24.1962 31.9036 23.8786 31.6485C23.8661 31.6345 23.8631 31.6235 23.8717 31.6204C23.8529 31.6121 23.8305 31.6024 23.807 31.5915C23.4975 31.3429 23.1879 31.0967 22.8747 30.8516C22.9765 30.8861 23.1134 30.9624 23.3076 31.113C22.5722 30.3453 20.9697 29.1838 20.2432 28.8881C20.2304 28.8789 20.2164 28.8709 20.2049 28.8607C19.6098 28.3238 20.798 29.1044 21.1908 29.3081C20.7547 28.9717 20.3144 28.646 19.8716 28.3225L19.7661 28.2456C19.7337 28.2221 19.6695 28.1836 19.6217 28.1532L19.469 28.0568C19.1095 27.7982 18.6611 28.3186 18.4781 28.5738C18.2704 28.8627 17.8955 29.4932 18.2297 29.8179L18.3598 29.93C19.4694 30.7147 20.5648 31.5142 21.6343 32.3486C21.7748 32.2502 21.9442 32.4573 22.3471 32.6314L22.514 32.8408C22.4587 32.7714 22.6091 32.8219 22.5995 32.7551C23.6879 33.6181 24.7771 34.4873 25.8111 35.4174C25.5932 35.3222 25.3834 35.2129 25.1856 35.0814C25.6511 35.4098 26.0743 35.7828 26.4626 36.1985L26.5637 36.3114C26.7863 36.56 26.9036 36.903 27.1835 37.0981C27.5536 37.3837 27.9522 36.6954 28.0786 36.4382C28.0544 36.7456 27.6914 37.2032 27.3828 37.2441C27.0197 37.2904 26.795 36.8174 26.6 36.592C26.5133 36.4799 26.4455 36.4195 26.3769 36.353C26.6084 36.5936 26.7628 36.8988 27.0082 37.127C27.1467 37.2407 27.2904 37.3246 27.4752 37.2757C27.5597 37.2526 27.6354 37.2122 27.708 37.1655C27.7367 37.1466 27.836 37.0532 27.8775 37.0663C27.8835 37.0655 27.9175 36.843 27.9124 36.8476C27.9358 36.8175 28.2008 36.4522 28.2031 36.4548C28.2369 36.4976 28.1528 36.6871 28.1451 36.7398C28.1374 36.7695 28.1324 36.7946 28.1443 36.7976C28.1537 36.803 28.1829 36.7768 28.2135 36.7472C28.3704 36.5038 28.5447 36.2083 28.5682 35.9129C28.5817 35.7569 28.6022 35.3637 28.3951 35.3137C28.2747 35.2889 28.2324 35.2034 28.189 35.0937C28.1381 34.7713 28.0871 34.4489 28.0483 34.1248C28.0452 34.0499 28.0343 33.9636 28.0179 33.8687C27.9913 33.6296 27.9658 33.3919 27.9405 33.1517C27.9988 33.2755 28.0485 33.183 28.077 33.1254C27.7533 32.3708 28.0277 32.1616 27.7838 30.7251C27.8585 30.6834 27.9637 31.3778 28.0587 31.4482C27.8984 30.6591 27.683 29.4509 27.5216 29.2937C27.3591 28.2621 27.219 27.2173 26.9663 26.2025C26.9895 26.2845 27.0521 26.7016 27.1803 26.7171C27.3132 26.7353 27.358 26.9283 27.398 27.0342C27.0268 26.0249 26.6949 25.0033 26.2967 24.0021C26.1487 23.4718 25.992 22.947 25.823 22.4264C25.8496 22.4025 25.8902 22.4096 25.9678 22.4681C25.9081 22.2176 25.8064 21.9841 25.7012 21.7492C25.6805 21.7083 25.7237 21.7999 25.7012 21.7492L25.6899 21.757ZM26.5117 31.2472C26.5117 31.2472 26.5094 31.2447 26.5083 31.2434C26.4953 31.1498 26.4836 31.0575 26.4706 30.964C26.4847 31.0588 26.4976 31.1524 26.5117 31.2472C26.5105 31.2459 26.4988 31.1536 26.5117 31.2472ZM26.5852 31.7939C26.5852 31.7939 26.5818 31.7901 26.5795 31.7876C26.5795 31.7876 26.5808 31.7864 26.5821 31.7853C26.5831 31.789 26.5829 31.7914 26.5828 31.7938C26.5817 31.7925 26.5817 31.7925 26.5828 31.7938L26.5852 31.7939ZM26.0426 28.5611C25.972 28.3317 25.9549 28.2053 25.9496 28.1049C25.9809 28.2574 26.0123 28.4099 26.0426 28.5611ZM26.0443 28.5732C26.1134 28.9159 26.179 29.2572 26.2422 29.5983C26.1644 29.2383 26.0679 28.911 25.9443 28.6377C25.9233 28.3845 25.9872 28.4278 26.0443 28.5732C26.1134 28.9159 25.9872 28.4278 26.0443 28.5732ZM26.4868 31.2169C26.4789 31.208 26.4709 31.1991 26.4652 31.1928C26.4742 31.2053 26.482 31.2166 26.4886 31.229C26.5031 31.2938 26.5175 31.3609 26.5304 31.4315C26.524 31.3733 26.515 31.3173 26.5073 31.2602C26.5073 31.2602 26.5107 31.264 26.5119 31.2653C26.5223 31.3382 26.5328 31.4112 26.5433 31.4817C26.5422 31.4804 26.5411 31.4792 26.5388 31.4766C26.5348 31.4619 26.5333 31.445 26.5293 31.4303C26.5322 31.4437 26.5338 31.4583 26.5354 31.4728C26.5219 31.4552 26.5097 31.4364 26.4952 31.4151C26.4727 31.4718 26.5035 31.57 26.5677 31.6953C26.5722 31.7233 26.5767 31.7513 26.5799 31.7804L26.5761 31.7838C26.5606 31.7588 26.5464 31.7327 26.532 31.709C26.4708 31.3752 26.3602 30.9555 26.3226 30.6531C26.3761 30.7972 26.4308 30.9859 26.4845 31.2144C26.4308 30.9859 26.4766 31.2055 26.4845 31.2144L26.4868 31.2169ZM26.4663 31.457C26.4758 31.5262 26.4822 31.5845 26.4869 31.6305C26.4648 31.5931 26.4428 31.5557 26.4207 31.5184C26.4307 31.5346 26.4382 31.5507 26.4471 31.5656C26.4196 31.5171 26.3921 31.4685 26.3623 31.4199L26.4663 31.457ZM21.181 26.7546C20.9174 26.4193 21.042 26.5202 20.9398 26.3397C21.0546 26.4883 21.1683 26.6357 21.2832 26.7819L21.181 26.7546ZM26.9799 26.7206C26.9482 26.749 27.0551 27.1287 27.0623 27.1725C27.1103 27.438 27.1534 27.7057 27.1966 27.9734C27.1316 27.6201 27.0618 27.269 26.9895 26.9177C26.9899 26.867 26.9863 26.8017 26.9811 26.7218L26.9799 26.7206Z" fill="white"/>
<path d="M23.8609 31.6211C23.8892 31.6323 23.9153 31.641 23.9366 31.647C23.8956 31.6266 23.8718 31.6205 23.8609 31.6211Z" fill="white"/>
<path d="M25.6135 27.6174C25.5917 27.5981 25.5726 27.5717 25.5526 27.5417C25.5808 27.6192 25.6009 27.6493 25.6135 27.6174Z" fill="white"/>
<path d="M25.3493 27.2049C25.3754 27.0809 25.4452 27.3681 25.5514 27.5404C25.449 27.255 25.2697 26.5059 25.3493 27.2049Z" fill="white"/>
<path d="M23.8458 30.6495C23.7332 30.46 23.6207 30.2704 23.6207 30.2704L23.1564 29.8771C23.6888 30.6529 23.5488 30.2412 24.0672 31.0294C24.0672 31.0294 23.9559 30.8388 23.847 30.6483C23.7345 30.4588 23.9559 30.8388 23.847 30.6483L23.8458 30.6495Z" fill="white"/>
<path d="M22.7428 28.9377L22.8931 29.0774C22.7705 28.938 22.7382 28.9121 22.7428 28.9377Z" fill="white"/>
<path d="M23.1077 29.6235L22.8726 29.2512C22.9032 29.2216 22.7512 28.9828 22.7415 28.9389L22.4193 28.6378C22.4909 28.7177 22.6351 28.8788 22.6662 28.9492L22.369 28.7399C22.617 29.0321 22.8624 29.3266 23.1066 29.6223L23.1077 29.6235Z" fill="white"/>
<path d="M22.0777 28.1618C22.0835 28.1887 22.0961 28.2232 22.0973 28.2449C22.1142 28.2435 22.1039 28.2115 22.0777 28.1618Z" fill="white"/>
<path d="M14.498 19.1919L13.9476 18.7202L14.3336 19.1129L14.498 19.1919Z" fill="white"/>
<path d="M11.347 16.3036C11.3273 16.305 11.3134 16.3104 11.3054 16.3222C11.3415 16.3365 11.3541 16.3298 11.347 16.3036Z" fill="white"/>
<path d="M6.16895 12.5226C6.08591 12.4758 6.01576 12.4358 5.90934 12.3756C6.00448 12.4436 6.08878 12.4892 6.16895 12.5226Z" fill="white"/>
<path d="M11.3282 16.4946L11.4495 16.5024L11.1837 16.3154L11.3282 16.4946Z" fill="white"/>
<path d="M5.62383 12.2176L5.35308 12.1195L5.54154 12.2227C5.68885 12.3285 5.77114 12.3234 5.62142 12.2175L5.62383 12.2176Z" fill="white"/>
<path d="M4.58255 11.3764L4.309 11.2854L4.91602 11.6926L4.58255 11.3764Z" fill="white"/>
<path d="M18.991 21.2097C19.3468 21.6887 19.8898 22.2722 20.2751 22.654C19.8946 22.0988 19.4243 21.7039 18.991 21.2097Z" fill="white"/>
<path d="M23.6383 26.3484C23.5143 26.2355 23.3622 26.0631 23.5666 26.3577L23.0354 25.9534C23.5686 26.7582 23.5933 26.4207 23.6383 26.3484C23.5933 26.4207 23.5143 26.2355 23.6383 26.3484Z" fill="white"/>
<path d="M25.5376 29.4932C25.5956 29.5784 25.6616 29.6725 25.7284 29.7727C25.6916 29.6754 25.6807 29.6097 25.5376 29.4932Z" fill="white"/>
<path d="M25.9249 30.0814C25.9567 30.1169 25.9794 30.1422 26.0078 30.174C25.9128 30.0373 25.819 29.9019 25.7297 29.7715C25.7559 29.8441 25.7968 29.9332 25.9261 30.0802C25.958 30.1157 25.7944 29.9331 25.9261 30.0802L25.9249 30.0814Z" fill="white"/>
<path d="M26.1513 22.3999C26.1512 22.4229 26.1573 22.4654 26.1727 22.5362C26.1677 22.4949 26.1594 22.4498 26.1513 22.3999Z" fill="white"/>
<path d="M25.6377 21.4359C25.1848 21.4049 24.8098 21.8847 24.5853 22.2161L24.5405 22.2835L24.5113 22.3326L24.4541 22.4295C24.3456 22.6249 24.248 22.8427 24.2414 23.0702C24.2355 23.2858 24.3331 23.507 24.3929 23.7117L24.4443 23.524C24.426 23.4627 24.4065 23.4001 24.3883 23.3364C24.359 23.2552 24.3297 23.1535 24.3363 23.0562C24.3429 22.673 24.5903 22.2778 24.8198 21.9878C24.9494 21.8237 25.0993 21.6643 25.2835 21.5611C25.4043 21.4918 25.7008 21.3863 25.7876 21.5599C25.8916 21.7296 26.0507 21.9277 26.0881 22.1252C26.1129 22.2218 26.1319 22.3145 26.149 22.3974C26.1518 22.3904 26.1545 22.3857 26.1573 22.3786C26.1917 22.3889 26.3049 22.6762 26.3312 22.6571C26.3937 22.6171 26.1658 22.0281 26.1453 21.9619C26.132 21.9419 26.1187 21.9194 26.1042 21.8981C25.995 21.7788 25.901 21.6482 25.8056 21.5187C25.7954 21.5073 25.788 21.4888 25.7763 21.4809C25.7331 21.4556 25.6845 21.4397 25.6342 21.4345C25.6714 21.4377 25.484 21.425 25.6342 21.4345L25.6377 21.4359Z" fill="white"/>
<path d="M26.2696 23.446C26.3577 23.7946 26.51 24.1587 26.5029 23.9593C26.2837 23.7145 26.4842 23.5555 26.2918 23.2181C26.2132 23.0691 26.2626 23.3106 26.2709 23.4449C26.2626 23.3106 26.3589 23.7934 26.2709 23.4449L26.2696 23.446Z" fill="white"/>
<path d="M27.3028 27.4921C27.4719 28.36 27.5495 28.1123 27.6984 28.5389C27.6404 27.7977 27.3467 27.199 27.3942 27.7576C27.3379 27.4675 27.2478 27.0682 27.3028 27.4921C27.4719 28.36 27.2478 27.0682 27.3028 27.4921Z" fill="white"/>
<path d="M28.3316 34.7831L28.3173 34.5399L28.1356 34.2706C28.1984 34.4429 28.2662 34.6131 28.3303 34.7842L28.3316 34.7831Z" fill="white"/>
<path d="M25.0831 35.2784C25.2722 35.436 25.46 35.5947 25.46 35.5947L25.2674 35.326L24.7001 34.9631C24.7001 34.9631 24.8916 35.1208 25.0831 35.2784C24.8929 35.1196 25.2722 35.436 25.0831 35.2784Z" fill="white"/>
<path d="M23.8324 34.1013L24.0468 34.3254C24.3551 34.6161 24.286 34.47 24.5132 34.6573L23.8324 34.1013Z" fill="white"/>
<path d="M22.518 33.0521C22.5007 33.0379 22.4799 33.0223 22.4566 33.0065L22.518 33.0521Z" fill="white"/>
<path d="M22.6342 33.1743L23.293 33.6266L22.5192 33.051C22.5723 33.0949 22.6038 33.1352 22.6355 33.1731L22.6342 33.1743Z" fill="white"/>
<path d="M35.8778 17.7063L35.7776 17.3324C35.8063 17.4629 35.8395 17.591 35.8778 17.7063Z" fill="white"/>
<path d="M35.6447 15.8914C35.6479 15.8758 35.6467 15.8476 35.6416 15.7973C35.6401 15.8272 35.6414 15.8596 35.6447 15.8914Z" fill="white"/>
<path d="M35.9202 18.2739L35.9182 18.2544C35.9041 18.1706 35.9077 18.2034 35.9202 18.2739Z" fill="white"/>
<path d="M36.0086 18.1627C36.0132 18.1172 36.0154 18.0543 36.0057 17.9357C36.0021 18.0284 36.0028 18.102 36.0086 18.1627Z" fill="white"/>
<path d="M37.6508 15.4425C37.621 15.461 37.6024 15.4744 37.6024 15.4744C37.6193 15.4625 37.6347 15.4531 37.6508 15.4425Z" fill="white"/>
<path d="M38.3918 15.2355C38.3915 15.1597 38.2938 15.1532 38.2398 15.1603C38.2124 15.1644 38.1913 15.1722 38.1712 15.1797C37.9943 15.2598 37.8154 15.3362 37.6529 15.442C37.7582 15.3747 37.8728 15.3219 37.9917 15.2816C37.9812 15.2855 37.9731 15.2908 37.9638 15.2954C37.7723 15.372 37.3828 15.5523 37.4249 15.8195C37.3977 15.9976 37.3686 16.1762 37.3375 16.3554C37.3167 16.3251 37.308 16.261 37.2876 16.4015C37.3406 16.7606 37.0195 17.5501 36.9439 17.9216L36.9656 17.786C36.9032 17.9705 36.8401 18.1561 36.7767 18.3408C36.7728 18.346 36.7722 18.3399 36.7698 18.3426C36.773 18.3544 36.7769 18.365 36.7834 18.3738C36.6726 18.5859 36.5252 18.9967 36.3999 19.4658C36.4034 19.526 36.3651 19.6861 36.3086 19.8847C36.3028 19.8631 36.2965 19.8395 36.2899 19.8149C36.2936 19.8444 36.2985 19.8748 36.303 19.9031C36.2546 20.069 36.196 20.2598 36.1366 20.4434C36.1347 20.4091 36.1322 20.376 36.1304 20.3417C36.1486 20.3663 36.1628 20.3562 36.1707 20.2718C36.1702 20.1201 36.1648 20.0055 36.1565 19.9117C36.1807 19.8325 36.1958 19.7789 36.1958 19.7789L36.1544 19.8881C36.1345 19.6877 36.0976 19.5932 36.0584 19.4666C36.044 19.3186 36.0277 19.1711 36.0104 19.0239C36.0362 18.9273 36.0921 18.9862 36.0264 18.4575L36.1285 18.8899C36.1736 18.4518 36.0368 18.4884 36.0108 18.1632C36.0003 18.2736 35.9769 18.2767 36.029 18.6445C35.9981 18.6865 35.9464 18.4072 35.9224 18.2744L35.9318 18.3605C35.9287 18.3529 35.9249 18.3465 35.9218 18.3389C35.8694 17.9701 35.8098 17.6022 35.7461 17.2343C35.7452 17.2272 35.7453 17.2197 35.746 17.2143L35.7796 17.3318C35.7104 17.0382 35.6582 16.7411 35.6021 16.445L35.6129 16.4537C35.6063 16.4291 35.5982 16.407 35.5912 16.3846C35.5641 16.2442 35.5383 16.1046 35.5102 15.9644C35.5343 15.9991 35.5426 15.9789 35.5026 15.8062C35.5714 15.8658 35.5859 16.038 35.6033 16.1188C35.6442 16.3029 35.676 16.4885 35.7016 16.6746C35.686 16.5691 35.6483 16.4126 35.6843 16.3069C35.694 16.2801 35.7104 16.3137 35.7145 16.3252C35.7456 16.3981 35.7589 16.4789 35.7742 16.556C35.8068 16.4218 35.67 16.1357 35.6479 15.8917C35.6403 15.938 35.6057 15.864 35.5927 15.8864C35.6654 15.8585 35.4183 15.0072 35.3619 15.0054L35.4967 15.4376C35.4653 15.466 35.3938 15.27 35.3442 15.1599C35.1002 14.0209 34.828 12.8789 34.4767 11.7686C34.5078 11.7666 34.5677 11.8486 34.554 11.7068C34.4288 11.2003 34.3796 11.2842 34.3227 11.2688C33.9483 10.0762 33.5617 8.99539 33.1805 8.02178C33.1906 8.01592 33.2106 8.03165 33.2435 8.07557C33.1334 7.75915 33.1636 7.91135 33.1553 7.95894C33.0939 7.80454 33.033 7.65211 32.9729 7.50264C32.9801 7.47854 32.9911 7.45662 33.0616 7.60542C32.9792 7.33746 32.9339 7.31376 32.8884 7.29747C32.7675 7.00397 32.6476 6.72181 32.5287 6.45101C32.5158 6.39117 32.507 6.33869 32.5046 6.29821C32.3887 6.05082 32.3154 5.92282 32.2618 5.8528C32.1946 5.70419 32.1277 5.56076 32.0615 5.42028C32.1034 5.48184 32.1378 5.51586 32.1606 5.49076C31.9931 5.25933 31.8658 5.00868 31.7404 4.7533C31.5992 4.46631 31.4543 4.18137 31.3054 3.89748C31.0665 3.44262 30.8192 2.99211 30.5628 2.54718C30.393 2.25203 30.2179 1.96042 30.0447 1.66829C29.9935 1.5797 29.9406 1.49263 29.8921 1.40226C29.8393 1.30356 29.7072 1.30628 29.6097 1.31658C29.382 1.34068 29.1505 1.43329 28.9573 1.55467C28.8778 1.60444 28.7965 1.66315 28.7449 1.74235C28.6748 1.85078 28.7476 1.93356 28.803 2.0337C29.288 2.91092 29.8523 3.74159 30.341 4.61677C30.4274 4.82881 30.4754 4.89398 30.5159 4.93481C30.5715 5.03593 30.6261 5.13732 30.6807 5.2387C30.6085 5.16208 30.5386 5.11013 30.4713 5.03218C30.6257 5.26187 30.6986 5.33304 30.7776 5.41943C30.8266 5.51177 30.8739 5.60562 30.9229 5.69795C30.9223 5.71921 30.9009 5.71018 30.8967 5.72607C30.9513 5.81164 30.998 5.87189 31.0407 5.92479C31.1707 6.17786 31.3005 6.42995 31.4305 6.68303C31.4582 6.78634 31.5349 6.89131 31.5824 6.98614C31.6553 7.13219 31.7262 7.27876 31.7954 7.42685C31.9349 7.72276 32.0686 8.02124 32.1975 8.32104C32.2129 8.38651 32.2186 8.43139 32.2142 8.45049C32.2309 8.45763 32.2517 8.4763 32.2759 8.50357C32.3833 8.75851 32.4882 9.01621 32.5892 9.27496C32.6578 9.48014 32.7238 9.68709 32.7906 9.8928C32.7677 10.0793 32.6161 9.49764 32.4784 9.25508C32.7356 9.97502 32.675 9.73709 32.9223 10.2625C32.9671 10.3981 33.0472 10.5749 33.1259 10.7468C33.2066 10.9847 33.2852 11.2231 33.3619 11.462C33.3529 11.4443 33.345 11.4264 33.3353 11.41C33.5037 11.9049 33.335 11.7001 33.5328 12.1787C33.5244 12.1039 33.5166 12.0079 33.4997 11.9017C33.5873 12.1852 33.6729 12.4691 33.7543 12.7532C33.7713 12.8404 33.7688 12.8822 33.7224 12.8271C33.7968 13.0814 33.8691 13.2645 33.9127 13.3287C33.9522 13.4763 33.9908 13.6242 34.0294 13.7721C33.9347 13.596 33.8188 13.1989 33.8938 13.6481L34.0618 14.0428C34.051 14.1206 34.2069 14.777 34.133 14.761C34.1976 14.9904 34.2335 15.022 34.2934 15.2063C34.2985 15.3905 34.3035 15.5274 34.3974 15.7437C34.2271 14.7463 34.3084 15.0378 34.1242 14.1812C34.1307 14.1857 34.1369 14.201 34.1437 14.2223C34.319 14.9358 34.4767 15.6539 34.6197 16.3728C34.6086 16.4454 34.5267 16.2185 34.4936 16.1894C34.5715 16.7127 34.6777 16.719 34.7316 17.1802C34.5448 16.4868 34.7402 17.4405 34.74 17.68C34.7763 17.5437 34.7784 17.3037 34.713 16.8509C34.9864 18.2805 35.2063 19.7192 35.2663 21.1754C35.201 21.0263 35.1338 20.8776 35.0672 20.7278C35.0617 20.6797 35.0585 20.6479 35.0585 20.6479L35.0521 20.6949C34.9532 20.4715 34.8533 20.2483 34.7527 20.0263C34.7498 20.0155 34.7512 20.0088 34.7566 20.0095C34.7488 20 34.7395 19.9888 34.7299 19.9766C34.6318 19.7603 34.5331 19.5452 34.4321 19.3297C34.4771 19.3757 34.5296 19.4534 34.5926 19.5862C34.4074 18.9777 33.8658 17.9248 33.5578 17.5707C33.5535 17.5624 33.5482 17.5543 33.5448 17.5457C33.3722 17.0984 33.7956 17.836 33.9502 18.0509C33.8083 17.7535 33.6613 17.4607 33.5123 17.1684L33.4768 17.0988C33.4658 17.0775 33.4419 17.0396 33.4246 17.0105L33.3692 16.9178C33.2471 16.6826 32.8671 16.8393 32.7005 16.9261C32.5116 17.0242 32.1412 17.2595 32.2318 17.5231L32.271 17.6181C32.6513 18.3367 33.0201 19.0595 33.3655 19.7937C33.4671 19.7792 33.5016 19.9355 33.6696 20.1373L33.7022 20.2941C33.6914 20.2422 33.758 20.3097 33.771 20.2715C34.1188 21.0262 34.4654 21.7844 34.7661 22.5602C34.6755 22.4506 34.593 22.3356 34.523 22.212C34.6827 22.513 34.8079 22.8264 34.9028 23.1532L34.9263 23.2408C34.978 23.4337 34.948 23.6484 35.0446 23.8282C35.165 24.0807 35.5638 23.8209 35.7007 23.7178C35.6047 23.8753 35.2874 24.0215 35.1116 23.96C34.9053 23.8866 34.9131 23.5734 34.8699 23.4004C34.8539 23.3171 34.834 23.2666 34.8153 23.2125C34.8739 23.4035 34.8739 23.6082 34.9433 23.7963C34.9864 23.8944 35.0405 23.978 35.1524 24.0018C35.2037 24.0123 35.2551 24.0112 35.3064 24.0059C35.3269 24.0036 35.4051 23.9805 35.4237 23.9987C35.4271 23.9999 35.5054 23.8903 35.5014 23.8914C35.522 23.8816 35.7622 23.7582 35.7627 23.7602C35.7692 23.7922 35.6731 23.8707 35.6548 23.8967C35.6426 23.9105 35.6332 23.9225 35.6387 23.9274C35.6423 23.9327 35.6649 23.9267 35.6892 23.9191C35.8388 23.8316 36.0117 23.7209 36.104 23.5696C36.1533 23.49 36.2705 23.2856 36.1735 23.203C36.1159 23.1572 36.1164 23.1001 36.1229 23.0299C36.1828 22.844 36.2427 22.6582 36.3095 22.4747C36.3281 22.4338 36.3456 22.3849 36.3625 22.3297C36.4129 22.1949 36.4635 22.0611 36.5149 21.9261C36.5125 22.0079 36.5641 21.972 36.5948 21.949C36.6259 21.4587 36.8289 21.4211 37.0868 20.5885C37.1379 20.5864 37.0065 20.9854 37.0382 21.0487C37.1658 20.5842 37.3772 19.881 37.3335 19.7535C37.5254 19.1589 37.7329 18.5634 37.8722 17.9534C37.8624 18.0035 37.7832 18.243 37.8474 18.2859C37.9134 18.3315 37.8852 18.4466 37.8779 18.514C37.9525 17.8749 38.0513 17.2399 38.1092 16.5979C38.1735 16.2749 38.2316 15.9524 38.282 15.6288C38.3027 15.6233 38.3224 15.638 38.348 15.6902C38.3838 15.5404 38.3926 15.3882 38.3999 15.2344C38.4 15.207 38.3983 15.2676 38.3999 15.2344L38.3918 15.2355ZM36.2667 20.5235C36.2667 20.5235 36.2661 20.5215 36.2659 20.5205C36.2842 20.4671 36.3029 20.4146 36.3213 20.3612C36.3032 20.4156 36.2848 20.469 36.2667 20.5235C36.2664 20.5225 36.285 20.47 36.2667 20.5235ZM36.1582 20.8352C36.1582 20.8352 36.1574 20.8322 36.1569 20.8302C36.1569 20.8302 36.1579 20.83 36.1589 20.8297C36.1584 20.832 36.1577 20.8332 36.157 20.8344C36.1567 20.8335 36.1567 20.8335 36.157 20.8344L36.1582 20.8352ZM36.7419 18.9629C36.7662 18.8213 36.7912 18.7493 36.8155 18.6942C36.7911 18.7841 36.7666 18.874 36.7419 18.9629ZM36.7396 18.9698C36.6839 19.1714 36.6267 19.3713 36.5682 19.5705C36.624 19.3573 36.6609 19.1565 36.6688 18.9772C36.726 18.8364 36.7484 18.8768 36.7396 18.9698C36.6839 19.1714 36.7484 18.8768 36.7396 18.9698ZM36.2616 20.5006C36.2597 20.4937 36.2579 20.4868 36.2566 20.4819C36.258 20.491 36.2591 20.4991 36.2592 20.5075C36.2495 20.546 36.239 20.5857 36.2269 20.6269C36.2392 20.5941 36.2495 20.5618 36.2608 20.5292C36.2608 20.5292 36.2616 20.5322 36.2619 20.5332C36.2477 20.5749 36.2336 20.6167 36.2202 20.6572C36.22 20.6562 36.2197 20.6552 36.2192 20.6533C36.221 20.6443 36.2248 20.6349 36.2266 20.626C36.2245 20.6339 36.2214 20.6421 36.2184 20.6503C36.2159 20.6372 36.2145 20.6239 36.2125 20.6086C36.1852 20.6328 36.1751 20.6935 36.1755 20.7778C36.1704 20.7939 36.1652 20.8101 36.159 20.8265L36.1561 20.8273C36.1546 20.8098 36.154 20.792 36.1528 20.7755C36.2103 20.5808 36.2646 20.3268 36.3262 20.1553C36.3159 20.2466 36.2941 20.3621 36.2611 20.4986C36.2941 20.3621 36.2592 20.4917 36.2611 20.4986L36.2616 20.5006ZM36.1858 20.6232C36.1721 20.6627 36.1598 20.6955 36.1499 20.7214C36.1482 20.6955 36.1465 20.6696 36.1449 20.6436C36.1458 20.655 36.1455 20.6656 36.1461 20.676C36.1446 20.6426 36.143 20.6093 36.1403 20.5753L36.1858 20.6232ZM34.6348 16.6852C34.5847 16.435 34.624 16.5225 34.6182 16.3986C34.6393 16.5089 34.6602 16.6183 34.682 16.7274L34.6348 16.6852ZM37.7395 18.2336C37.7149 18.2402 37.6694 18.4718 37.6614 18.4971C37.6153 18.6518 37.566 18.8064 37.5167 18.9609C37.5775 18.7548 37.6351 18.5485 37.6914 18.3414C37.7053 18.3145 37.721 18.2787 37.7398 18.2346L37.7395 18.2336Z" fill="white"/>
<path d="M34.7506 20.0069C34.7627 20.0205 34.7743 20.0322 34.7841 20.0411C34.7676 20.0192 34.7566 20.0095 34.7506 20.0069Z" fill="white"/>
<path d="M36.7678 18.3431C36.7614 18.3269 36.7583 18.3077 36.7557 18.2863C36.7499 18.3353 36.7525 18.3567 36.7678 18.3431Z" fill="white"/>
<path d="M36.7382 18.0515C36.7856 17.9924 36.7453 18.1646 36.7554 18.2852C36.7779 18.1052 36.8845 17.6569 36.7382 18.0515Z" fill="white"/>
<path d="M35.0051 19.4841C34.9962 19.3525 34.9873 19.221 34.9873 19.221L34.8457 18.8855C34.9203 19.4435 34.9568 19.1859 35.0206 19.7467C35.0206 19.7467 35.0127 19.6149 35.006 19.4838C34.9972 19.3523 35.0127 19.6149 35.006 19.4838L35.0051 19.4841Z" fill="white"/>
<path d="M34.8787 18.2724L34.9212 18.3876C34.8934 18.2801 34.8832 18.2575 34.8787 18.2724Z" fill="white"/>
<path d="M34.8882 18.7371L34.8633 18.4748C34.8876 18.4673 34.871 18.2988 34.8777 18.2727L34.787 18.0249C34.8037 18.0869 34.8371 18.2119 34.8347 18.2579L34.7326 18.0658C34.786 18.2888 34.8375 18.5123 34.888 18.7361L34.8882 18.7371Z" fill="white"/>
<path d="M34.7333 17.6786C34.7291 17.6945 34.7265 17.7163 34.7213 17.7282C34.7307 17.732 34.7338 17.7122 34.7333 17.6786Z" fill="white"/>
<path d="M33.1105 10.8427L32.9441 10.4422L33.044 10.756L33.1105 10.8427Z" fill="white"/>
<path d="M32.2087 8.4497C32.1978 8.4451 32.189 8.44424 32.1815 8.44839C32.1969 8.46575 32.2054 8.4656 32.2087 8.4497Z" fill="white"/>
<path d="M30.4661 5.03247C30.4344 4.98507 30.4078 4.94474 30.3672 4.8839C30.3997 4.94587 30.4323 4.99301 30.4661 5.03247Z" fill="white"/>
<path d="M32.1471 8.5465L32.2098 8.5835L32.1184 8.41181L32.1471 8.5465Z" fill="white"/>
<path d="M30.2575 4.72243L30.1395 4.59691L30.2122 4.70293C30.2623 4.7992 30.3076 4.8187 30.2563 4.72171L30.2575 4.72243Z" fill="white"/>
<path d="M29.9289 3.99208L29.8075 3.86959L30.0215 4.25098L29.9289 3.99208Z" fill="white"/>
<path d="M34.9637 13.1336C35.0242 13.4855 35.1565 13.9436 35.259 14.2515C35.2059 13.8523 35.0616 13.5145 34.9637 13.1336Z" fill="white"/>
<path d="M36.0562 17.1322C36.0205 17.0384 35.9859 16.9053 36.0154 17.1178L35.8411 16.7584C35.9083 17.3321 36.0127 17.1586 36.0562 17.1322C36.0127 17.1586 36.0205 17.0384 36.0562 17.1322Z" fill="white"/>
<path d="M36.2205 19.324C36.2285 19.3852 36.2383 19.4532 36.2469 19.5247C36.2535 19.4628 36.2655 19.4248 36.2205 19.324Z" fill="white"/>
<path d="M36.2683 19.7425C36.2757 19.77 36.281 19.7897 36.2876 19.8143C36.2738 19.7157 36.2603 19.6181 36.2479 19.5244C36.2422 19.5702 36.24 19.6288 36.2693 19.7422C36.2767 19.7698 36.2387 19.6281 36.2693 19.7422L36.2683 19.7425Z" fill="white"/>
<path d="M38.4644 15.7033C38.4581 15.7156 38.4499 15.7399 38.439 15.7819C38.4475 15.7585 38.4552 15.7322 38.4644 15.7033Z" fill="white"/>
<path d="M38.4507 15.0499C38.2173 14.9111 37.8875 15.0659 37.6781 15.1821L37.636 15.206L37.6072 15.2243L37.5504 15.2606C37.4397 15.3356 37.3288 15.4254 37.2638 15.5451C37.2025 15.6586 37.1948 15.8031 37.1714 15.9285L37.2495 15.8422C37.2563 15.8045 37.2628 15.7658 37.2703 15.7269C37.2766 15.6757 37.2885 15.6134 37.3183 15.5633C37.4253 15.3606 37.6641 15.2164 37.865 15.1236C37.9785 15.071 38.1016 15.0264 38.2278 15.0211C38.311 15.0167 38.4978 15.0405 38.4972 15.1567C38.5069 15.2754 38.5383 15.4241 38.5049 15.5396C38.492 15.5978 38.4771 15.6525 38.4639 15.7014C38.4673 15.6983 38.47 15.6966 38.4734 15.6935C38.4889 15.7084 38.4718 15.8922 38.491 15.8892C38.5352 15.8847 38.5726 15.5088 38.5796 15.4679C38.5778 15.4536 38.5768 15.438 38.5749 15.4227C38.5488 15.3295 38.5339 15.2344 38.5179 15.1395C38.5156 15.1306 38.5166 15.1188 38.5125 15.1114C38.4963 15.0862 38.4747 15.0646 38.4492 15.0482C38.4682 15.06 38.3716 15.0026 38.4492 15.0482L38.4507 15.0499Z" fill="white"/>
<path d="M38.245 16.2937C38.1978 16.5035 38.1808 16.739 38.2309 16.6307C38.18 16.4408 38.33 16.4101 38.3184 16.178C38.3167 16.0772 38.2778 16.2195 38.2459 16.2934C38.2778 16.2195 38.1988 16.5032 38.2459 16.2934L38.245 16.2937Z" fill="white"/>
<path d="M37.7034 18.7327C37.5592 19.2417 37.6675 19.1304 37.6317 19.3983C37.801 18.987 37.806 18.5881 37.6805 18.8991C37.7288 18.729 37.7885 18.4915 37.7034 18.7327C37.5592 19.2417 37.7885 18.4915 37.7034 18.7327Z" fill="white"/>
<path d="M36.2828 22.9025L36.3409 22.7688L36.3166 22.576C36.3036 22.685 36.2939 22.7941 36.2818 22.9028L36.2828 22.9025Z" fill="white"/>
<path d="M34.415 22.2894C34.4734 22.4245 34.5308 22.56 34.5308 22.56L34.5006 22.3645L34.2958 22.0176C34.2958 22.0176 34.3554 22.1535 34.415 22.2894C34.3564 22.1532 34.4734 22.4245 34.415 22.2894Z" fill="white"/>
<path d="M34.0654 21.3231L34.1193 21.5006C34.2053 21.7391 34.2079 21.6424 34.2786 21.8038L34.0654 21.3231Z" fill="white"/>
<path d="M33.6472 20.408C33.6418 20.3957 33.6349 20.3817 33.6268 20.367L33.6472 20.408Z" fill="white"/>
<path d="M33.6762 20.5046L33.9057 20.9241L33.6482 20.4078C33.6646 20.4455 33.6705 20.4756 33.6772 20.5044L33.6762 20.5046Z" fill="white"/>
</svg>
