<svg width="32" height="32" viewBox="0 0 32 32" fill="none" xmlns="http://www.w3.org/2000/svg">
<g clip-path="url(#clip0_297_4083)">
<rect width="32" height="32" rx="8" fill="#101112"/>
<path fill-rule="evenodd" clip-rule="evenodd" d="M7.29343 7.29337C7.48093 7.10611 7.7351 7.00092 8.0001 7.00092C8.2651 7.00092 8.51926 7.10611 8.70676 7.29337L16.0001 14.5867L23.2934 7.29337C23.385 7.19513 23.4954 7.11632 23.618 7.06167C23.7407 7.00701 23.8731 6.97762 24.0074 6.97525C24.1417 6.97288 24.275 6.99758 24.3996 7.04788C24.5241 7.09817 24.6372 7.17303 24.7321 7.26799C24.8271 7.36295 24.902 7.47606 24.9523 7.60058C25.0026 7.7251 25.0273 7.85847 25.0249 7.99274C25.0225 8.12701 24.9931 8.25943 24.9385 8.38209C24.8838 8.50476 24.805 8.61516 24.7068 8.70671L17.4134 16L24.7068 23.2934C24.805 23.3849 24.8838 23.4953 24.9385 23.618C24.9931 23.7407 25.0225 23.8731 25.0249 24.0073C25.0273 24.1416 25.0026 24.275 24.9523 24.3995C24.902 24.524 24.8271 24.6371 24.7321 24.7321C24.6372 24.827 24.5241 24.9019 24.3996 24.9522C24.275 25.0025 24.1417 25.0272 24.0074 25.0248C23.8731 25.0225 23.7407 24.9931 23.618 24.9384C23.4954 24.8838 23.385 24.805 23.2934 24.7067L16.0001 17.4134L8.70676 24.7067C8.5172 24.8833 8.26647 24.9795 8.0074 24.9749C7.74833 24.9704 7.50115 24.8654 7.31793 24.6822C7.13472 24.499 7.02977 24.2518 7.0252 23.9927C7.02063 23.7337 7.11679 23.4829 7.29343 23.2934L14.5868 16L7.29343 8.70671C7.10616 8.51921 7.00098 8.26504 7.00098 8.00004C7.00098 7.73504 7.10616 7.48088 7.29343 7.29337Z" fill="white"/>
</g>
<defs>
<clipPath id="clip0_297_4083">
<rect width="32" height="32" rx="8" fill="white"/>
</clipPath>
</defs>
</svg>
