<svg width="73" height="27" viewBox="0 0 73 27" fill="none" xmlns="http://www.w3.org/2000/svg">
<path d="M14.3503 18.096C14.3503 19.2907 14.1156 20.3787 13.6463 21.36C13.1983 22.32 12.5796 23.152 11.7903 23.856C11.0223 24.56 10.1049 25.104 9.03826 25.488C7.99293 25.872 6.86226 26.064 5.64626 26.064C4.79293 26.064 3.93959 25.84 3.08626 25.392C2.23293 24.9227 1.41159 24.1867 0.622259 23.184L2.99026 18.544C3.13959 18.8213 3.36359 19.1093 3.66226 19.408C3.96093 19.6853 4.29159 19.9307 4.65426 20.144C5.03826 20.3573 5.41159 20.5387 5.77426 20.688C6.15826 20.816 6.49959 20.88 6.79826 20.88C7.05426 20.88 7.32093 20.8373 7.59826 20.752C7.87559 20.6667 8.13159 20.5387 8.36626 20.368C8.60093 20.1973 8.78226 20.0053 8.91026 19.792C9.05959 19.5573 9.13426 19.2907 9.13426 18.992C9.13426 18.48 8.96359 18.0107 8.62226 17.584C8.30226 17.136 7.89693 16.72 7.40626 16.336C6.91559 15.9307 6.38226 15.5253 5.80626 15.12C5.23026 14.7147 4.69693 14.288 4.20626 13.84C3.73693 13.392 3.33159 12.8907 2.99026 12.336C2.64893 11.7813 2.47826 11.1627 2.47826 10.48C2.47826 9.37067 2.80893 8.336 3.47026 7.376C4.13159 6.416 4.95293 5.59467 5.93426 4.912C6.93693 4.208 8.02493 3.65333 9.19826 3.248C10.3716 2.84267 11.4809 2.64 12.5263 2.64C13.1023 2.64 13.6463 2.71467 14.1583 2.864C14.6703 2.992 15.1076 3.216 15.4703 3.536C15.8543 3.83467 16.1529 4.21867 16.3663 4.688C16.6009 5.15733 16.7183 5.744 16.7183 6.448C16.7183 6.74667 16.6863 7.04533 16.6223 7.344C16.5796 7.64267 16.5369 7.96267 16.4943 8.304L11.8543 9.648C11.8969 9.47733 11.9289 9.30667 11.9503 9.136C11.9929 8.96533 12.0143 8.79467 12.0143 8.624C12.0143 7.984 11.8969 7.52533 11.6623 7.248C11.4489 6.94933 11.1609 6.8 10.7983 6.8C10.6276 6.8 10.4143 6.864 10.1583 6.992C9.92359 7.12 9.67826 7.29067 9.42226 7.504C9.18759 7.696 8.98493 7.93067 8.81426 8.208C8.64359 8.48533 8.55826 8.784 8.55826 9.104C8.55826 9.616 8.69693 10.0427 8.97426 10.384C9.27293 10.7253 9.63559 11.0453 10.0623 11.344C10.4889 11.6427 10.9476 11.952 11.4383 12.272C11.9503 12.5707 12.4196 12.9653 12.8463 13.456C13.2729 13.9467 13.6249 14.5653 13.9023 15.312C14.2009 16.0373 14.3503 16.9653 14.3503 18.096ZM20.8401 10.672C20.8614 10.672 20.7441 10.672 20.4881 10.672C20.2321 10.672 19.9121 10.6933 19.5281 10.736C19.1441 10.7573 18.7174 10.7787 18.2481 10.8C17.7787 10.8213 17.3414 10.8533 16.9361 10.896C16.5521 10.9173 16.2214 10.9387 15.9441 10.96C15.6667 10.96 15.5281 10.96 15.5281 10.96C15.6134 10.704 15.7201 10.3627 15.8481 9.936C15.9974 9.488 16.1467 9.008 16.2961 8.496C16.4667 7.96267 16.6374 7.408 16.8081 6.832C17.0001 6.256 17.1814 5.69067 17.3521 5.136C17.7361 3.81333 18.1627 2.40533 18.6321 0.911999L21.2241 0.975998L24.1041 0.911999C23.5921 2.384 23.1334 3.77067 22.7281 5.072C22.5361 5.60533 22.3441 6.16 22.1521 6.736C21.9601 7.29067 21.7787 7.824 21.6081 8.336C21.4587 8.82667 21.3094 9.27467 21.1601 9.68C21.0321 10.0853 20.9254 10.416 20.8401 10.672ZM32.2489 19.12C31.7369 20.2933 31.1609 21.3173 30.5209 22.192C29.9022 23.0453 29.2409 23.7707 28.5369 24.368C27.8542 24.944 27.1609 25.3707 26.4569 25.648C25.7529 25.9253 25.0702 26.064 24.4089 26.064C23.7475 26.064 23.1395 25.9147 22.5849 25.616C22.0515 25.3173 21.5822 24.8693 21.1769 24.272C20.7715 23.6747 20.4409 22.9387 20.1849 22.064C19.9502 21.1893 19.8329 20.1653 19.8329 18.992C19.8329 16.9867 20.1102 15.0133 20.6649 13.072C21.2195 11.1093 21.9982 9.34933 23.0009 7.792C24.0035 6.23467 25.1875 4.98667 26.5529 4.048C27.9395 3.088 29.4649 2.608 31.1289 2.608C31.6409 2.608 32.1315 2.71467 32.6009 2.928C33.0702 3.14133 33.4755 3.44 33.8169 3.824C34.1582 4.208 34.4249 4.67733 34.6169 5.232C34.8302 5.78667 34.9369 6.40533 34.9369 7.088C34.9369 7.216 34.9369 7.35467 34.9369 7.504C34.9369 7.632 34.9262 7.77067 34.9049 7.92L30.7129 9.04C30.4569 8.50667 30.1582 8.24 29.8169 8.24C29.4755 8.24 29.1129 8.44267 28.7289 8.848C28.3662 9.232 28.0035 9.744 27.6409 10.384C27.2782 11.0027 26.9262 11.7067 26.5849 12.496C26.2435 13.264 25.9449 14.0427 25.6889 14.832C25.4329 15.6213 25.2195 16.3787 25.0489 17.104C24.8995 17.808 24.8249 18.384 24.8249 18.832C24.8249 19.5147 24.9102 19.9947 25.0809 20.272C25.2729 20.5493 25.5182 20.688 25.8169 20.688C26.0515 20.688 26.3182 20.6027 26.6169 20.432C26.9155 20.24 27.1929 20.0053 27.4489 19.728C27.7049 19.4293 27.9395 19.0987 28.1529 18.736C28.3662 18.3733 28.5155 18.0107 28.6009 17.648L32.2489 19.12ZM31.2306 26.032C31.8066 23.1947 32.3613 20.4213 32.8946 17.712C33.0866 16.56 33.3 15.3653 33.5346 14.128C33.7693 12.8693 33.9826 11.632 34.1746 10.416C34.388 9.17867 34.58 7.99467 34.7506 6.864C34.9426 5.712 35.092 4.66667 35.1986 3.728C36.4146 3.344 37.7266 3.06667 39.1347 2.896C40.5426 2.704 41.94 2.608 43.3267 2.608C44.1587 2.608 44.8413 2.704 45.3747 2.896C45.9293 3.088 46.356 3.36533 46.6547 3.728C46.9747 4.06933 47.1987 4.47467 47.3267 4.944C47.4547 5.41333 47.5187 5.936 47.5187 6.512C47.5187 7.36533 47.3693 8.208 47.0707 9.04C46.772 9.85067 46.3667 10.6293 45.8547 11.376C45.364 12.1013 44.788 12.7733 44.1266 13.392C43.4866 13.9893 42.7933 14.48 42.0466 14.864C42.4307 15.7173 42.836 16.656 43.2627 17.68C43.7107 18.6827 44.1267 19.6427 44.5107 20.56C44.9373 21.6267 45.3747 22.6933 45.8226 23.76L40.8626 25.488C40.436 24.1227 40.052 22.8427 39.7107 21.648C39.5613 21.1573 39.412 20.656 39.2627 20.144C39.1133 19.6107 38.9747 19.1093 38.8467 18.64C38.7187 18.1707 38.612 17.7547 38.5266 17.392C38.4413 17.008 38.388 16.6987 38.3667 16.464L37.9507 16.592C37.8226 17.2747 37.6626 18.0747 37.4707 18.992C37.3 19.9093 37.14 20.7947 36.9907 21.648C36.7987 22.6507 36.6067 23.664 36.4146 24.688L31.2306 26.032ZM38.7506 12.144C39.156 12.1013 39.6467 11.9307 40.2227 11.632C40.82 11.3333 41.3853 10.9813 41.9187 10.576C42.452 10.1493 42.9106 9.712 43.2947 9.264C43.6787 8.816 43.8707 8.42133 43.8707 8.08C43.8707 7.84533 43.796 7.664 43.6467 7.536C43.4973 7.38667 43.284 7.28 43.0066 7.216C42.7507 7.13067 42.4627 7.07733 42.1427 7.056C41.8227 7.03467 41.492 7.024 41.1507 7.024C40.916 7.024 40.6706 7.03467 40.4146 7.056C40.18 7.056 39.9667 7.056 39.7747 7.056L38.7506 12.144ZM56.3652 25.36C55.8319 25.4453 55.2452 25.5413 54.6052 25.648C53.9652 25.7547 53.3892 25.8507 52.8772 25.936C52.9625 25.232 53.0479 24.5387 53.1332 23.856C53.1972 23.2587 53.2505 22.6613 53.2932 22.064C53.3572 21.4667 53.4105 20.9547 53.4532 20.528H50.6692L49.3892 25.136C48.9199 25.2 48.3652 25.2747 47.7252 25.36C47.0852 25.424 46.4879 25.488 45.9332 25.552C45.2505 25.6373 44.5785 25.7227 43.9172 25.808C44.7705 22.9707 45.6132 20.176 46.4452 17.424C46.7865 16.272 47.1385 15.0667 47.5012 13.808C47.8852 12.5493 48.2585 11.3013 48.6212 10.064C49.0052 8.80533 49.3679 7.6 49.7092 6.448C50.0505 5.296 50.3492 4.24 50.6052 3.28C52.0559 3.17333 53.5279 3.04533 55.0212 2.896C56.5359 2.74667 58.0079 2.544 59.4372 2.288C59.3732 2.97066 59.2985 3.824 59.2132 4.848C59.1492 5.85067 59.0852 6.94933 59.0212 8.144C58.9572 9.33867 58.8932 10.5867 58.8292 11.888C58.7652 13.1893 58.7012 14.4693 58.6372 15.728C58.5305 18.672 58.4132 21.7973 58.2852 25.104C57.6452 25.2107 57.0052 25.296 56.3652 25.36ZM51.4372 17.328C51.5225 17.328 51.6719 17.328 51.8852 17.328C52.1199 17.3067 52.3545 17.296 52.5892 17.296C52.8452 17.2747 53.0799 17.264 53.2932 17.264C53.5065 17.2427 53.6559 17.2213 53.7412 17.2C53.7412 17.072 53.7519 16.8587 53.7732 16.56C53.8159 16.24 53.8479 15.888 53.8692 15.504C53.9119 15.0987 53.9545 14.6613 53.9972 14.192C54.0399 13.7227 54.0825 13.264 54.1252 12.816C54.2105 11.728 54.3172 10.5547 54.4452 9.296L54.6372 6.512L54.1572 6.544L53.4212 9.296L51.4372 17.328ZM57.6047 26.032C58.2447 23.152 58.8527 20.336 59.4287 17.584C59.6634 16.432 59.9087 15.216 60.1647 13.936C60.4207 12.656 60.6661 11.3973 60.9007 10.16C61.1354 8.92267 61.3594 7.728 61.5727 6.576C61.7861 5.424 61.9674 4.368 62.1167 3.408C62.7354 3.216 63.3434 3.056 63.9407 2.928C64.5381 2.77867 65.1461 2.65067 65.7647 2.544C66.4047 2.43733 67.0021 2.384 67.5567 2.384C68.5167 2.384 69.3167 2.544 69.9567 2.864C70.6181 3.184 71.1514 3.62133 71.5567 4.176C71.9621 4.70933 72.2501 5.33867 72.4207 6.064C72.5914 6.78933 72.6767 7.568 72.6767 8.4C72.6767 9.59467 72.4527 10.7467 72.0047 11.856C71.5781 12.9653 70.9914 13.9573 70.2447 14.832C69.5194 15.6853 68.6767 16.368 67.7167 16.88C66.7781 17.392 65.7967 17.648 64.7727 17.648H64.4207C64.2501 18.3733 64.0901 19.1627 63.9407 20.016C63.7914 20.8693 63.6634 21.6587 63.5567 22.384C63.4074 23.2373 63.2687 24.0907 63.1407 24.944L57.6047 26.032ZM66.5327 6.256C66.2981 7.664 66.0634 8.99733 65.8287 10.256C65.5941 11.5147 65.3381 12.8587 65.0607 14.288C65.4021 14.2027 65.7541 14.0107 66.1167 13.712C66.5007 13.392 66.8527 12.9867 67.1727 12.496C67.4927 11.984 67.7487 11.3973 67.9407 10.736C68.1327 10.0747 68.2287 9.38133 68.2287 8.656C68.2287 7.86666 68.0474 7.26933 67.6847 6.864C67.3434 6.45867 66.9594 6.256 66.5327 6.256Z" fill="white"/>
</svg>
