<svg width="16" height="16" viewBox="0 0 16 16" fill="none" xmlns="http://www.w3.org/2000/svg">
<path fill-rule="evenodd" clip-rule="evenodd" d="M8.00033 2.46671C6.7041 2.46671 5.66927 3.55328 5.66699 4.86602L5.66699 7.60473C5.66699 8.9117 6.7056 9.98884 8.00033 9.98884H8.2289C9.52362 9.98884 10.5622 8.9117 10.5622 7.60473V4.87035C10.5622 3.55562 9.52655 2.46671 8.2289 2.46671H8.00033ZM6.90509 7.75978V4.71471C6.9786 4.1466 7.45427 3.71931 8.00033 3.71931H8.2289C8.77495 3.71931 9.25063 4.1466 9.32414 4.71471V7.75978C9.25016 8.31388 8.77776 8.73624 8.2289 8.73624H8.00033C7.45148 8.73624 6.97907 8.31388 6.90509 7.75978Z" fill="white"/>
<path d="M4.41934 8.19457C4.06963 8.19457 3.80029 8.48291 3.80029 8.82087C3.80029 9.84311 4.37349 10.7422 5.13535 11.3911C5.75139 11.9158 6.51734 12.039 7.27813 12.1614C7.35706 12.174 7.43593 12.1867 7.51458 12.1999V13.2141H5.63839C5.28867 13.2141 5.01934 13.5024 5.01934 13.8404C5.01934 14.1784 5.28867 14.4667 5.63839 14.4667H10.6289C10.9786 14.4667 11.2479 14.1784 11.2479 13.8404C11.2479 13.5024 10.9786 13.2141 10.6289 13.2141H8.75267V12.1999C8.83132 12.1867 8.91019 12.174 8.98912 12.1614C9.74991 12.039 10.5159 11.9158 11.1319 11.3911C11.8938 10.7422 12.467 9.84311 12.467 8.82087C12.467 8.48291 12.1976 8.19457 11.8479 8.19457C11.4982 8.19457 11.2289 8.48291 11.2289 8.82087C11.2289 9.46132 10.835 10.082 10.2158 10.5583C9.63586 11.0043 8.90571 11.0022 8.25737 11.0003C8.21576 11.0002 8.1745 11 8.13363 11C8.09276 11 8.05149 11.0002 8.00988 11.0003C7.36154 11.0022 6.63139 11.0043 6.05146 10.5583C5.43227 10.082 5.03839 9.46132 5.03839 8.82087C5.03839 8.48291 4.76906 8.19457 4.41934 8.19457Z" fill="white"/>
<path d="M13.0073 1.59002C13.0903 1.24783 13.577 1.24783 13.66 1.59001L13.8883 2.53157C13.9179 2.65374 14.0133 2.74913 14.1355 2.77875L15.077 3.00706C15.4192 3.09004 15.4192 3.57671 15.077 3.65968L14.1355 3.888C14.0133 3.91762 13.9179 4.01301 13.8883 4.13518L13.66 5.07673C13.577 5.41892 13.0903 5.41892 13.0073 5.07673L12.779 4.13518C12.7494 4.01301 12.654 3.91762 12.5319 3.888L11.5903 3.65968C11.5689 3.6545 11.5489 3.64774 11.5302 3.63959C11.2494 3.51745 11.2695 3.08485 11.5903 3.00706L12.5319 2.77875C12.654 2.74913 12.7494 2.65374 12.779 2.53157L13.0073 1.59002Z" fill="white"/>
<path d="M2.06173 11.5472C2.13088 11.2621 2.53644 11.2621 2.60558 11.5472L2.79584 12.3319C2.82053 12.4337 2.90002 12.5132 3.00183 12.5379L3.78646 12.7281C4.07161 12.7973 4.07161 13.2028 3.78646 13.272L3.00183 13.4622C2.98911 13.4653 2.97673 13.4693 2.96476 13.474C2.88101 13.5071 2.81745 13.5791 2.79584 13.6682L2.60558 14.4528C2.60126 14.4707 2.59563 14.4874 2.58884 14.503C2.48706 14.7369 2.12656 14.7202 2.06173 14.4528L1.87147 13.6682C1.86993 13.6618 1.86817 13.6556 1.86621 13.6494C1.83676 13.5567 1.76093 13.4854 1.66549 13.4622L0.88086 13.272C0.863037 13.2676 0.846329 13.262 0.830735 13.2552C0.596817 13.1534 0.613525 12.7929 0.88086 12.7281L1.66549 12.5379C1.7673 12.5132 1.84679 12.4337 1.87147 12.3319L2.06173 11.5472Z" fill="white"/>
<path d="M4.66699 2.00004C4.66699 2.36823 4.36852 2.66671 4.00033 2.66671C3.63214 2.66671 3.33366 2.36823 3.33366 2.00004C3.33366 1.63185 3.63214 1.33337 4.00033 1.33337C4.36852 1.33337 4.66699 1.63185 4.66699 2.00004Z" fill="white"/>
<path d="M14.667 14C14.667 14.3682 14.3685 14.6667 14.0003 14.6667C13.6321 14.6667 13.3337 14.3682 13.3337 14C13.3337 13.6319 13.6321 13.3334 14.0003 13.3334C14.3685 13.3334 14.667 13.6319 14.667 14Z" fill="white"/>
<path d="M14.667 11.3334C14.667 11.7016 14.3685 12 14.0003 12C13.6321 12 13.3337 11.7016 13.3337 11.3334C13.3337 10.9652 13.6321 10.6667 14.0003 10.6667C14.3685 10.6667 14.667 10.9652 14.667 11.3334Z" fill="white"/>
<path d="M2.66699 4.00004C2.66699 4.36823 2.36852 4.66671 2.00033 4.66671C1.63214 4.66671 1.33366 4.36823 1.33366 4.00004C1.33366 3.63185 1.63214 3.33337 2.00033 3.33337C2.36852 3.33337 2.66699 3.63185 2.66699 4.00004Z" fill="white"/>
</svg>
