<svg width="74" height="24" viewBox="0 0 74 24" fill="none" xmlns="http://www.w3.org/2000/svg">
<path d="M20 18V4M15 4H4M15 9H4M10 14H4M20 18.5C20 19.8807 18.433 21 16.5 21C14.567 21 13 19.8807 13 18.5C13 17.1193 14.567 16 16.5 16C18.433 16 20 17.1193 20 18.5Z" stroke="#585859" stroke-width="2" stroke-linecap="round"/>
<path d="M28.9641 6.6875H31.8703L35.0109 14.3594H35.1359L38.2766 6.6875H41.1828V18H38.9016V10.5938H38.8078L35.8547 17.9531H34.2922L31.3391 10.5625H31.2453V18H28.9641V6.6875ZM43.8016 21.1875C43.3484 21.1797 42.9266 21.1719 42.6297 21.1406V19.3438C42.9266 19.3672 43.2781 19.375 43.5672 19.375C44.0281 19.375 44.3953 19.3281 44.6766 18.5938L44.8172 18.2344L41.7703 9.51562H44.1922L45.9734 15.7656H46.0672L47.8641 9.51562H50.3172L47.0047 18.9375C46.5203 20.3047 45.5906 21.1797 43.8016 21.1875ZM56.2422 6.6875V18H53.9297V6.6875H56.2422ZM57.4391 18V9.51562H59.7516V18H57.4391ZM57.3297 7.23438C57.3297 6.57812 57.9 6.05469 58.5953 6.04688C59.2828 6.05469 59.8531 6.57812 59.8453 7.23438C59.8531 7.875 59.2828 8.40625 58.5953 8.40625C57.9 8.40625 57.3297 7.875 57.3297 7.23438ZM65.7922 12.0312C65.6906 11.4375 65.175 11.0547 64.4016 11.0469C63.6516 11.0547 63.0812 11.4062 63.0891 11.9219C63.0812 12.3047 63.3781 12.6016 64.1828 12.7656L65.6984 13.0781C67.3469 13.4219 68.1437 14.1562 68.1516 15.375C68.1437 17.0469 66.6437 18.1641 64.3859 18.1719C62.0969 18.1641 60.7531 17.1406 60.5578 15.4844H62.8859C62.9953 16.1484 63.5344 16.4922 64.3859 16.5C65.2297 16.4922 65.7922 16.1562 65.7922 15.6094C65.7922 15.1719 65.4328 14.8984 64.6359 14.7344L63.2297 14.4531C61.6125 14.1328 60.7844 13.3047 60.7922 12.0469C60.7844 10.4219 62.1828 9.40625 64.3703 9.40625C66.5109 9.40625 67.8391 10.4219 67.9641 12.0312H65.7922ZM73.4422 9.51562V11.25H71.8484V15.3906C71.8406 16.0703 72.1766 16.2344 72.6453 16.25C72.8797 16.25 73.2859 16.2266 73.5672 16.2031V18.0312C73.3172 18.0703 72.9031 18.1172 72.3328 18.1094C70.6609 18.1172 69.5203 17.3672 69.5359 15.7188V11.25H68.3641V9.51562H69.5359V7.48438H71.8484V9.51562H73.4422Z" fill="#585859"/>
</svg>
