<svg width="77" height="24" viewBox="0 0 77 24" fill="none" xmlns="http://www.w3.org/2000/svg">
<path d="M12 6V18M20 5V19M4 10V14M8 3V21M16 8V16" stroke="#585859" stroke-width="2" stroke-linecap="round"/>
<path d="M39.411 12.3425C39.411 16.0331 37.1237 18.1547 34.1237 18.1547C31.1126 18.1547 28.8419 16.0221 28.8419 12.3425C28.8419 8.65193 31.1126 6.53039 34.1237 6.53039C37.1237 6.53039 39.411 8.65193 39.411 12.3425ZM31.2231 12.3425C31.2231 14.7569 32.3778 16.0718 34.1237 16.0718C35.875 16.0718 37.0297 14.7569 37.0297 12.3425C37.0297 9.92818 35.875 8.61326 34.1237 8.61326C32.3778 8.61326 31.2231 9.92818 31.2231 12.3425ZM44.9297 9.51381V11.2541H43.3274V15.3978C43.3274 16.0718 43.6589 16.232 44.1341 16.2486C44.3606 16.2541 44.7639 16.2265 45.0402 16.2099V18.0331C44.7971 18.0718 44.3827 18.116 43.8192 18.116C42.1396 18.116 41.0015 17.3646 41.0125 15.7127V11.2541H39.8468V9.51381H41.0125V7.48066H43.3274V9.51381H44.9297ZM48.2577 13.0884V18H45.9427V6.68508H48.1914V11.0055H48.2908C48.6775 10.011 49.5339 9.40331 50.8267 9.40331C52.5947 9.40331 53.7604 10.6022 53.7604 12.5967V18H51.4455V13C51.451 11.9448 50.882 11.326 49.9151 11.326C48.9427 11.326 48.2577 11.9724 48.2577 13.0884ZM58.7873 18.1657C56.1851 18.1657 54.5884 16.4862 54.5884 13.7956C54.5884 11.1768 56.2072 9.40331 58.6934 9.40331C60.9199 9.40331 62.6768 10.8122 62.6768 13.7072V14.3536H56.8757C56.8757 15.6409 57.6381 16.4309 58.826 16.4309C59.6216 16.4309 60.1851 16.0884 60.4172 15.5856H62.616C62.2846 17.1492 60.8812 18.1657 58.7873 18.1657ZM56.8757 12.9061H60.4945C60.4835 11.8785 59.7707 11.1326 58.7376 11.1326C57.6713 11.1326 56.931 11.9337 56.8757 12.9061ZM63.524 18V9.51381H65.7671V10.9889H65.8555C66.1649 9.94475 66.9494 9.39227 67.8997 9.39227C68.1372 9.39227 68.4356 9.42541 68.64 9.46409V11.5304C68.4245 11.4641 67.977 11.4033 67.6511 11.4033C66.6069 11.4033 65.8389 12.1326 65.8389 13.1768V18H63.524ZM74.0248 12.0387C73.9254 11.4365 73.406 11.0552 72.6326 11.0552C71.8812 11.0552 71.3121 11.4088 71.3176 11.9171C71.3121 12.3039 71.6105 12.6022 72.406 12.7735L73.9364 13.0829C75.5773 13.4199 76.3729 14.1547 76.3784 15.3812C76.3729 17.0497 74.8756 18.1657 72.6215 18.1657C70.3232 18.1657 68.9806 17.1436 68.7928 15.4862H71.1132C71.2292 16.1492 71.7652 16.4917 72.6215 16.4917C73.4613 16.4917 74.0193 16.1602 74.0248 15.6133C74.0193 15.1713 73.6657 14.9006 72.8701 14.7348L71.4668 14.4586C69.8425 14.1381 69.0138 13.3039 69.0193 12.0497C69.0138 10.4199 70.4116 9.40331 72.5939 9.40331C74.7431 9.40331 76.069 10.4199 76.1906 12.0387H74.0248Z" fill="#585859"/>
</svg>
