<svg width="49" height="26" viewBox="0 0 49 26" fill="none" xmlns="http://www.w3.org/2000/svg">
<mask id="path-1-outside-1_216_1153" maskUnits="userSpaceOnUse" x="-3" y="-3" width="55" height="32" fill="black">
<rect fill="white" x="-3" y="-3" width="55" height="32"/>
<path d="M2.51296 11.3281C2.51296 8.96875 2.54812 7.15625 2.61843 5.89062H2.60671L0.930933 5.64453C0.82937 5.35547 0.751245 5.03516 0.696558 4.68359C0.64187 4.33203 0.614527 3.99219 0.614527 3.66406C0.614527 3.41406 0.634058 3.14062 0.67312 2.84375C1.63406 2.5 2.95828 2.24609 4.64578 2.08203C6.33328 1.91797 7.95828 1.83594 9.52078 1.83594C10.7161 1.83594 11.7434 1.92969 12.6028 2.11719C13.4622 2.30469 14.1809 2.73047 14.7591 3.39453C15.345 4.05078 15.638 5.03516 15.638 6.34766C15.638 7.00391 15.4973 7.76953 15.2161 8.64453C14.9427 9.51172 14.5911 10.3594 14.1614 11.1875C13.7395 12.0078 13.3137 12.6719 12.8841 13.1797C12.2512 13.9375 11.5481 14.3828 10.7747 14.5156C9.49343 14.7188 8.13796 14.8203 6.70828 14.8203C6.67703 15.625 6.66531 16.2031 6.67312 16.5547L8.41921 16.4375C8.77859 17.0234 8.97781 17.7188 9.01687 18.5234C9.01687 18.5625 8.84109 18.7305 8.48953 19.0273C8.13796 19.3242 7.67312 19.5977 7.095 19.8477C6.52468 20.0977 5.86843 20.2227 5.12625 20.2227C4.39187 20.2227 3.80593 20.0234 3.36843 19.625C2.93875 19.2188 2.7239 18.5195 2.7239 17.5273C2.59109 15.9023 2.52468 13.8398 2.52468 11.3398L2.51296 11.3281ZM9.93093 11.5273C10.1341 10.668 10.302 9.75781 10.4348 8.79688C10.5755 7.82812 10.6536 6.98437 10.6692 6.26562C10.6302 6.19531 10.4309 6.13281 10.0716 6.07812C9.71218 6.02344 9.24734 5.99609 8.67703 5.99609C8.27859 5.99609 7.7825 6.01172 7.18875 6.04297C7.11843 8.40234 7.02468 10.2969 6.9075 11.7266L9.93093 11.5273ZM15.1397 4.67188C15.0226 4.19531 14.9444 3.80078 14.9054 3.48828C14.8663 3.16797 14.8507 2.80078 14.8585 2.38672C15.0226 2.17578 15.2765 1.96484 15.6202 1.75391C15.9718 1.53516 16.378 1.35156 16.839 1.20312C17.3077 1.05469 17.7921 0.980469 18.2921 0.980469C19.2686 0.980469 20.0186 1.22656 20.5421 1.71875C21.0655 2.21094 21.3272 2.9375 21.3272 3.89844C21.3272 4.58594 21.2686 5.69141 21.1515 7.21484C21.0343 8.73828 20.8663 10.3594 20.6476 12.0781C20.4288 13.7891 20.1788 15.2852 19.8976 16.5664L19.921 16.5898L21.6554 15.8633C22.2647 16.3867 22.6202 17.082 22.7218 17.9492C22.7218 18.0039 22.546 18.2305 22.1944 18.6289C21.8429 19.0195 21.378 19.3867 20.7999 19.7305C20.2296 20.0664 19.5733 20.2344 18.8311 20.2344C18.0577 20.2344 17.4288 20.0195 16.9444 19.5898C16.4679 19.1602 16.2413 18.4258 16.2647 17.3867L16.2882 15.2773C16.296 13.2773 16.3155 11.4766 16.3468 9.875C16.3858 8.27344 16.464 6.62109 16.5811 4.91797L15.1397 4.67188ZM26.4071 12.2773C26.8681 12.2773 27.3759 12.3242 27.9306 12.418C28.4931 12.5117 29.0087 12.625 29.4775 12.7578V12.3945C29.4775 12.1523 29.4696 11.8828 29.454 11.5859C29.4462 11.2891 29.4306 11.0938 29.4071 11C29.3368 10.8672 29.1337 10.7305 28.7978 10.5898C28.4696 10.4492 27.9306 10.3789 27.1806 10.3789C26.7196 10.3789 26.2431 10.4375 25.7509 10.5547C25.2665 10.6641 24.7275 10.8125 24.1337 11C23.8134 10.4688 23.5556 9.96484 23.3603 9.48828C23.1728 9.00391 23.079 8.51953 23.079 8.03516C23.079 7.88672 23.0907 7.73828 23.1142 7.58984C24.3798 6.60547 26.0165 6.11328 28.0243 6.11328C29.1337 6.11328 30.1181 6.23828 30.9775 6.48828C31.8368 6.73828 32.5439 7.22266 33.0985 7.94141C33.6532 8.66016 33.9306 9.67969 33.9306 11C33.9306 12.2891 33.7782 13.5391 33.4735 14.75C33.1767 15.9531 33.0243 16.5664 33.0165 16.5898L34.7157 15.8633C34.9423 16.1055 35.1415 16.4023 35.3134 16.7539C35.4931 17.0977 35.6064 17.4961 35.6532 17.9492C35.5439 18.1836 35.3056 18.4844 34.9384 18.8516C34.5712 19.2109 34.122 19.5312 33.5907 19.8125C33.0595 20.0938 32.5048 20.2344 31.9267 20.2344C31.2782 20.2344 30.786 20.043 30.4501 19.6602C30.122 19.2773 29.9579 18.7812 29.9579 18.1719C29.9579 17.8281 30.0087 17.4805 30.1103 17.1289L29.7587 17.0234C29.54 18.2578 29.0751 19.1016 28.3642 19.5547C27.6532 20.0078 26.8681 20.2344 26.0087 20.2344C25.4462 20.2344 24.9032 20.0781 24.3798 19.7656C23.8564 19.4453 23.4306 18.9844 23.1025 18.3828C22.7743 17.7734 22.6103 17.0625 22.6103 16.25C22.6103 14.9531 22.9345 13.9688 23.5829 13.2969C24.2314 12.6172 25.1728 12.2773 26.4071 12.2773ZM27.7431 16.7422C27.9384 16.7031 28.1689 16.5938 28.4345 16.4141C28.7079 16.2344 28.9501 16.0195 29.161 15.7695C29.372 15.5195 29.497 15.2812 29.536 15.0547L29.4657 14.7734C29.0517 14.7188 28.6103 14.6914 28.1415 14.6914C27.7431 14.6914 27.4696 14.7227 27.3212 14.7852C27.0712 15.0664 26.9462 15.3789 26.9462 15.7227C26.9462 15.9727 27.0087 16.1992 27.1337 16.4023C27.2665 16.6055 27.4696 16.7188 27.7431 16.7422ZM39.3503 18.5352C39.2019 17.957 38.9245 17.1211 38.5183 16.0273C38.112 14.9258 37.6863 13.8672 37.2409 12.8516C36.7956 11.8359 36.4441 11.1367 36.1863 10.7539L35.1081 10.5664C34.9988 10.2617 34.9128 9.92578 34.8503 9.55859C34.7956 9.18359 34.7488 8.75 34.7097 8.25781C34.8425 7.89062 35.0456 7.54297 35.3191 7.21484C35.5925 6.88672 35.9206 6.62109 36.3034 6.41797C36.6941 6.21484 37.1159 6.11328 37.5691 6.11328C38.3113 6.11328 38.9245 6.32422 39.4089 6.74609C39.9011 7.16016 40.28 7.68359 40.5456 8.31641C40.8191 8.94141 41.0574 9.67969 41.2605 10.5312C41.6745 12.1797 41.9402 14.2227 42.0574 16.6602L42.3152 16.6133C42.6199 15.9336 42.8777 14.9609 43.0886 13.6953C43.3074 12.4297 43.4245 11.2148 43.4402 10.0508L41.9753 9.82812C41.8034 9.17187 41.7175 8.40234 41.7175 7.51953C41.8894 7.30859 42.1355 7.09766 42.4558 6.88672C42.7839 6.66797 43.1706 6.48438 43.6159 6.33594C44.0613 6.1875 44.5339 6.11328 45.0339 6.11328C47.0495 6.11328 48.0574 7.125 48.0574 9.14844C48.0574 10.7422 47.7683 12.2891 47.1902 13.7891C46.6199 15.2891 45.7605 16.6445 44.612 17.8555C43.4636 19.0664 42.0652 20.0195 40.4167 20.7148L40.5105 21.1016C40.7214 21.125 40.9284 21.1367 41.1316 21.1367C41.7956 21.1367 42.5964 21.0273 43.5339 20.8086C44.0652 21.4023 44.3308 22.0508 44.3308 22.7539C44.3308 22.9648 44.3074 23.1797 44.2605 23.3984C43.7917 23.8516 43.2058 24.2422 42.5027 24.5703C41.7995 24.8984 41.0261 25.0625 40.1824 25.0625C38.9558 25.0625 37.9636 24.7852 37.2058 24.2305C36.448 23.6758 36.0691 22.832 36.0691 21.6992C36.0691 21.1914 36.2214 20.7461 36.5261 20.3633C36.8386 19.9883 37.198 19.6836 37.6042 19.4492C38.0183 19.207 38.6003 18.9023 39.3503 18.5352Z"/>
</mask>
<path d="M2.51296 11.3281C2.51296 8.96875 2.54812 7.15625 2.61843 5.89062H2.60671L0.930933 5.64453C0.82937 5.35547 0.751245 5.03516 0.696558 4.68359C0.64187 4.33203 0.614527 3.99219 0.614527 3.66406C0.614527 3.41406 0.634058 3.14062 0.67312 2.84375C1.63406 2.5 2.95828 2.24609 4.64578 2.08203C6.33328 1.91797 7.95828 1.83594 9.52078 1.83594C10.7161 1.83594 11.7434 1.92969 12.6028 2.11719C13.4622 2.30469 14.1809 2.73047 14.7591 3.39453C15.345 4.05078 15.638 5.03516 15.638 6.34766C15.638 7.00391 15.4973 7.76953 15.2161 8.64453C14.9427 9.51172 14.5911 10.3594 14.1614 11.1875C13.7395 12.0078 13.3137 12.6719 12.8841 13.1797C12.2512 13.9375 11.5481 14.3828 10.7747 14.5156C9.49343 14.7188 8.13796 14.8203 6.70828 14.8203C6.67703 15.625 6.66531 16.2031 6.67312 16.5547L8.41921 16.4375C8.77859 17.0234 8.97781 17.7188 9.01687 18.5234C9.01687 18.5625 8.84109 18.7305 8.48953 19.0273C8.13796 19.3242 7.67312 19.5977 7.095 19.8477C6.52468 20.0977 5.86843 20.2227 5.12625 20.2227C4.39187 20.2227 3.80593 20.0234 3.36843 19.625C2.93875 19.2188 2.7239 18.5195 2.7239 17.5273C2.59109 15.9023 2.52468 13.8398 2.52468 11.3398L2.51296 11.3281ZM9.93093 11.5273C10.1341 10.668 10.302 9.75781 10.4348 8.79688C10.5755 7.82812 10.6536 6.98437 10.6692 6.26562C10.6302 6.19531 10.4309 6.13281 10.0716 6.07812C9.71218 6.02344 9.24734 5.99609 8.67703 5.99609C8.27859 5.99609 7.7825 6.01172 7.18875 6.04297C7.11843 8.40234 7.02468 10.2969 6.9075 11.7266L9.93093 11.5273ZM15.1397 4.67188C15.0226 4.19531 14.9444 3.80078 14.9054 3.48828C14.8663 3.16797 14.8507 2.80078 14.8585 2.38672C15.0226 2.17578 15.2765 1.96484 15.6202 1.75391C15.9718 1.53516 16.378 1.35156 16.839 1.20312C17.3077 1.05469 17.7921 0.980469 18.2921 0.980469C19.2686 0.980469 20.0186 1.22656 20.5421 1.71875C21.0655 2.21094 21.3272 2.9375 21.3272 3.89844C21.3272 4.58594 21.2686 5.69141 21.1515 7.21484C21.0343 8.73828 20.8663 10.3594 20.6476 12.0781C20.4288 13.7891 20.1788 15.2852 19.8976 16.5664L19.921 16.5898L21.6554 15.8633C22.2647 16.3867 22.6202 17.082 22.7218 17.9492C22.7218 18.0039 22.546 18.2305 22.1944 18.6289C21.8429 19.0195 21.378 19.3867 20.7999 19.7305C20.2296 20.0664 19.5733 20.2344 18.8311 20.2344C18.0577 20.2344 17.4288 20.0195 16.9444 19.5898C16.4679 19.1602 16.2413 18.4258 16.2647 17.3867L16.2882 15.2773C16.296 13.2773 16.3155 11.4766 16.3468 9.875C16.3858 8.27344 16.464 6.62109 16.5811 4.91797L15.1397 4.67188ZM26.4071 12.2773C26.8681 12.2773 27.3759 12.3242 27.9306 12.418C28.4931 12.5117 29.0087 12.625 29.4775 12.7578V12.3945C29.4775 12.1523 29.4696 11.8828 29.454 11.5859C29.4462 11.2891 29.4306 11.0938 29.4071 11C29.3368 10.8672 29.1337 10.7305 28.7978 10.5898C28.4696 10.4492 27.9306 10.3789 27.1806 10.3789C26.7196 10.3789 26.2431 10.4375 25.7509 10.5547C25.2665 10.6641 24.7275 10.8125 24.1337 11C23.8134 10.4688 23.5556 9.96484 23.3603 9.48828C23.1728 9.00391 23.079 8.51953 23.079 8.03516C23.079 7.88672 23.0907 7.73828 23.1142 7.58984C24.3798 6.60547 26.0165 6.11328 28.0243 6.11328C29.1337 6.11328 30.1181 6.23828 30.9775 6.48828C31.8368 6.73828 32.5439 7.22266 33.0985 7.94141C33.6532 8.66016 33.9306 9.67969 33.9306 11C33.9306 12.2891 33.7782 13.5391 33.4735 14.75C33.1767 15.9531 33.0243 16.5664 33.0165 16.5898L34.7157 15.8633C34.9423 16.1055 35.1415 16.4023 35.3134 16.7539C35.4931 17.0977 35.6064 17.4961 35.6532 17.9492C35.5439 18.1836 35.3056 18.4844 34.9384 18.8516C34.5712 19.2109 34.122 19.5312 33.5907 19.8125C33.0595 20.0938 32.5048 20.2344 31.9267 20.2344C31.2782 20.2344 30.786 20.043 30.4501 19.6602C30.122 19.2773 29.9579 18.7812 29.9579 18.1719C29.9579 17.8281 30.0087 17.4805 30.1103 17.1289L29.7587 17.0234C29.54 18.2578 29.0751 19.1016 28.3642 19.5547C27.6532 20.0078 26.8681 20.2344 26.0087 20.2344C25.4462 20.2344 24.9032 20.0781 24.3798 19.7656C23.8564 19.4453 23.4306 18.9844 23.1025 18.3828C22.7743 17.7734 22.6103 17.0625 22.6103 16.25C22.6103 14.9531 22.9345 13.9688 23.5829 13.2969C24.2314 12.6172 25.1728 12.2773 26.4071 12.2773ZM27.7431 16.7422C27.9384 16.7031 28.1689 16.5938 28.4345 16.4141C28.7079 16.2344 28.9501 16.0195 29.161 15.7695C29.372 15.5195 29.497 15.2812 29.536 15.0547L29.4657 14.7734C29.0517 14.7188 28.6103 14.6914 28.1415 14.6914C27.7431 14.6914 27.4696 14.7227 27.3212 14.7852C27.0712 15.0664 26.9462 15.3789 26.9462 15.7227C26.9462 15.9727 27.0087 16.1992 27.1337 16.4023C27.2665 16.6055 27.4696 16.7188 27.7431 16.7422ZM39.3503 18.5352C39.2019 17.957 38.9245 17.1211 38.5183 16.0273C38.112 14.9258 37.6863 13.8672 37.2409 12.8516C36.7956 11.8359 36.4441 11.1367 36.1863 10.7539L35.1081 10.5664C34.9988 10.2617 34.9128 9.92578 34.8503 9.55859C34.7956 9.18359 34.7488 8.75 34.7097 8.25781C34.8425 7.89062 35.0456 7.54297 35.3191 7.21484C35.5925 6.88672 35.9206 6.62109 36.3034 6.41797C36.6941 6.21484 37.1159 6.11328 37.5691 6.11328C38.3113 6.11328 38.9245 6.32422 39.4089 6.74609C39.9011 7.16016 40.28 7.68359 40.5456 8.31641C40.8191 8.94141 41.0574 9.67969 41.2605 10.5312C41.6745 12.1797 41.9402 14.2227 42.0574 16.6602L42.3152 16.6133C42.6199 15.9336 42.8777 14.9609 43.0886 13.6953C43.3074 12.4297 43.4245 11.2148 43.4402 10.0508L41.9753 9.82812C41.8034 9.17187 41.7175 8.40234 41.7175 7.51953C41.8894 7.30859 42.1355 7.09766 42.4558 6.88672C42.7839 6.66797 43.1706 6.48438 43.6159 6.33594C44.0613 6.1875 44.5339 6.11328 45.0339 6.11328C47.0495 6.11328 48.0574 7.125 48.0574 9.14844C48.0574 10.7422 47.7683 12.2891 47.1902 13.7891C46.6199 15.2891 45.7605 16.6445 44.612 17.8555C43.4636 19.0664 42.0652 20.0195 40.4167 20.7148L40.5105 21.1016C40.7214 21.125 40.9284 21.1367 41.1316 21.1367C41.7956 21.1367 42.5964 21.0273 43.5339 20.8086C44.0652 21.4023 44.3308 22.0508 44.3308 22.7539C44.3308 22.9648 44.3074 23.1797 44.2605 23.3984C43.7917 23.8516 43.2058 24.2422 42.5027 24.5703C41.7995 24.8984 41.0261 25.0625 40.1824 25.0625C38.9558 25.0625 37.9636 24.7852 37.2058 24.2305C36.448 23.6758 36.0691 22.832 36.0691 21.6992C36.0691 21.1914 36.2214 20.7461 36.5261 20.3633C36.8386 19.9883 37.198 19.6836 37.6042 19.4492C38.0183 19.207 38.6003 18.9023 39.3503 18.5352Z" fill="white"/>
<path d="M2.51296 11.3281H-0.944663V12.7603L0.0680529 13.773L2.51296 11.3281ZM2.61843 5.89062L6.07074 6.08242L6.27348 2.433H2.61843V5.89062ZM2.60671 5.89062L2.10434 9.31156L2.35419 9.34825H2.60671L2.60671 5.89062ZM0.930933 5.64453L-2.3312 6.79069L-1.63861 8.7619L0.428558 9.06547L0.930933 5.64453ZM0.67312 2.84375L-0.491482 -0.411843L-2.47952 0.299324L-2.75496 2.39269L0.67312 2.84375ZM14.7591 3.39453L12.1512 5.66487L12.1655 5.68121L12.1799 5.69737L14.7591 3.39453ZM15.2161 8.64453L11.9243 7.58647L11.9214 7.5956L11.9185 7.60475L15.2161 8.64453ZM14.1614 11.1875L11.0923 9.59504L11.0866 9.60616L14.1614 11.1875ZM12.8841 13.1797L10.2446 10.9463L10.2373 10.9548L10.2301 10.9635L12.8841 13.1797ZM10.7747 14.5156L11.3161 17.9306L11.338 17.9271L11.3599 17.9234L10.7747 14.5156ZM6.70828 14.8203V11.3627H3.38232L3.25325 14.6861L6.70828 14.8203ZM6.67312 16.5547L3.21635 16.6315L3.29668 20.2467L6.90465 20.0046L6.67312 16.5547ZM8.41921 16.4375L11.3666 14.6298L10.2736 12.8476L8.18768 12.9876L8.41921 16.4375ZM9.01687 18.5234H12.4745V18.4396L12.4704 18.3558L9.01687 18.5234ZM7.095 19.8477L5.72262 16.674L5.71472 16.6775L5.70684 16.6809L7.095 19.8477ZM3.36843 19.625L0.993004 22.1375L1.01645 22.1596L1.04031 22.1814L3.36843 19.625ZM2.7239 17.5273H6.18153V17.3863L6.17004 17.2457L2.7239 17.5273ZM2.52468 11.3398H5.98231V9.90765L4.96959 8.89493L2.52468 11.3398ZM9.93093 11.5273L10.1583 14.9775L12.7081 14.8095L13.2958 12.3227L9.93093 11.5273ZM10.4348 8.79688L7.01308 8.30017L7.01138 8.31182L7.00977 8.32349L10.4348 8.79688ZM10.6692 6.26562L14.126 6.34077L14.1464 5.40482L13.6917 4.58645L10.6692 6.26562ZM7.18875 6.04297L7.00702 2.59012L3.8275 2.75746L3.73265 5.93997L7.18875 6.04297ZM6.9075 11.7266L3.46143 11.4441L3.13387 15.4403L7.13483 15.1767L6.9075 11.7266ZM5.97059 11.3281C5.97059 8.98839 6.00579 7.25149 6.07074 6.08242L-0.83387 5.69883C-0.909547 7.06101 -0.944663 8.94911 -0.944663 11.3281H5.97059ZM2.61843 2.433H2.60671L2.60671 9.34825H2.61843L2.61843 2.433ZM3.10909 2.46969L1.43331 2.2236L0.428558 9.06547L2.10434 9.31156L3.10909 2.46969ZM4.19307 4.49838C4.17183 4.43793 4.14031 4.32709 4.1131 4.15213L-2.71998 5.21505C-2.63782 5.74323 -2.51309 6.27301 -2.3312 6.79069L4.19307 4.49838ZM4.1131 4.15213C4.08349 3.96182 4.07215 3.80007 4.07215 3.66406H-2.8431C-2.8431 4.1843 -2.79975 4.70224 -2.71998 5.21505L4.1131 4.15213ZM4.07215 3.66406C4.07215 3.5909 4.0781 3.47035 4.1012 3.29481L-2.75496 2.39269C-2.80999 2.8109 -2.8431 3.23722 -2.8431 3.66406H4.07215ZM1.83772 6.09934C2.41277 5.89363 3.41612 5.67551 4.98036 5.52343L4.3112 -1.35937C2.50043 -1.18332 0.855345 -0.893635 -0.491482 -0.411843L1.83772 6.09934ZM4.98036 5.52343C6.56594 5.36928 8.07895 5.29356 9.52078 5.29356V-1.62169C7.8376 -1.62169 6.10062 -1.53334 4.3112 -1.35937L4.98036 5.52343ZM9.52078 5.29356C10.5501 5.29356 11.3172 5.37565 11.8658 5.49534L13.3399 -1.26097C12.1697 -1.51628 10.8821 -1.62169 9.52078 -1.62169V5.29356ZM11.8658 5.49534C11.9979 5.52417 12.0608 5.56104 12.1512 5.66487L17.3669 1.12419C16.301 -0.100098 14.9265 -0.914793 13.3399 -1.26097L11.8658 5.49534ZM12.1799 5.69737C12.0819 5.58759 12.0787 5.52554 12.1043 5.6113C12.1333 5.70888 12.1803 5.93756 12.1803 6.34766L19.0956 6.34766C19.0956 4.5927 18.7124 2.63071 17.3382 1.0917L12.1799 5.69737ZM12.1803 6.34766C12.1803 6.53291 12.1361 6.92755 11.9243 7.58647L18.5078 9.7026C18.8586 8.61151 19.0956 7.47491 19.0956 6.34766L12.1803 6.34766ZM11.9185 7.60475C11.7067 8.27657 11.4324 8.93959 11.0923 9.59505L17.2305 12.78C17.7498 11.7792 18.1786 10.7469 18.5137 9.68431L11.9185 7.60475ZM11.0866 9.60616C10.7422 10.2758 10.454 10.6988 10.2446 10.9463L15.5236 15.4131C16.1735 14.645 16.7368 13.7399 17.2362 12.7688L11.0866 9.60616ZM10.2301 10.9635C10.1019 11.1169 10.0304 11.162 10.0321 11.161C10.0336 11.16 10.0501 11.1499 10.081 11.1378C10.1123 11.1255 10.1496 11.1147 10.1895 11.1079L11.3599 17.9234C13.1342 17.6187 14.5188 16.6165 15.538 15.3959L10.2301 10.9635ZM10.2333 11.1006C9.14815 11.2727 7.97478 11.3627 6.70828 11.3627L6.70828 18.2779C8.30115 18.2779 9.83871 18.1648 11.3161 17.9306L10.2333 11.1006ZM3.25325 14.6861C3.22184 15.4951 3.20599 16.1652 3.21635 16.6315L10.1299 16.4779C10.1246 16.241 10.1322 15.7549 10.1633 14.9545L3.25325 14.6861ZM6.90465 20.0046L8.65075 19.8874L8.18768 12.9876L6.44159 13.1048L6.90465 20.0046ZM5.4718 18.2452C5.4788 18.2567 5.54756 18.3667 5.56331 18.6911L12.4704 18.3558C12.4081 17.0708 12.0784 15.7902 11.3666 14.6298L5.4718 18.2452ZM5.55924 18.5234C5.55924 17.9212 5.71763 17.4662 5.80253 17.253C5.89833 17.0125 6.00206 16.8323 6.0653 16.7297C6.18997 16.5275 6.30631 16.3883 6.34818 16.339C6.40214 16.2755 6.44428 16.2314 6.46237 16.2128C6.48287 16.1917 6.49542 16.1797 6.49631 16.1789C6.49694 16.1783 6.47886 16.1954 6.43387 16.2351C6.39089 16.273 6.33327 16.3227 6.25873 16.3856L10.7203 21.6691C10.9116 21.5075 11.108 21.337 11.2738 21.1785C11.3483 21.1073 11.4821 20.9768 11.6196 20.8148C11.6835 20.7396 11.8163 20.5786 11.952 20.3585C11.9889 20.2985 12.4745 19.5715 12.4745 18.5234H5.55924ZM6.25873 16.3856C6.24118 16.4004 6.09606 16.5126 5.72262 16.674L8.46737 23.0213C9.25018 22.6827 10.0347 22.248 10.7203 21.6691L6.25873 16.3856ZM5.70684 16.6809C5.64984 16.7059 5.48076 16.765 5.12625 16.765V23.6803C6.2561 23.6803 7.39953 23.4894 8.48315 23.0144L5.70684 16.6809ZM5.12625 16.765C5.06889 16.765 5.12381 16.7571 5.24903 16.7997C5.38503 16.8459 5.54779 16.9331 5.69656 17.0686L1.04031 22.1814C2.25841 23.2907 3.74738 23.6803 5.12625 23.6803V16.765ZM5.74386 17.1125C6.05456 17.4063 6.16332 17.693 6.19016 17.7804C6.21258 17.8533 6.18153 17.7931 6.18153 17.5273H-0.733725C-0.733725 18.8574 -0.472945 20.7515 0.993004 22.1375L5.74386 17.1125ZM6.17004 17.2457C6.04777 15.7497 5.98231 13.7896 5.98231 11.3398H-0.932944C-0.932944 13.89 -0.865592 16.055 -0.722234 17.809L6.17004 17.2457ZM4.96959 8.89493L4.95788 8.88321L0.0680529 13.773L0.0797716 13.7848L4.96959 8.89493ZM13.2958 12.3227C13.5264 11.3472 13.7136 10.329 13.8599 9.27026L7.00977 8.32349C6.89047 9.18664 6.74171 9.9887 6.56602 10.732L13.2958 12.3227ZM13.8566 9.29358C14.0108 8.23134 14.1065 7.24064 14.126 6.34077L7.2124 6.19048C7.20072 6.72811 7.14013 7.42491 7.01308 8.30017L13.8566 9.29358ZM13.6917 4.58645C13.2204 3.73813 12.5389 3.3311 12.2933 3.19418C11.9795 3.01929 11.6953 2.9202 11.5255 2.86693C11.1785 2.75808 10.8383 2.69738 10.5917 2.65985L9.55139 9.4964C9.66416 9.51356 9.60324 9.51145 9.4555 9.4651C9.38533 9.44309 9.18073 9.37622 8.92651 9.23453C8.79411 9.16072 8.59892 9.0395 8.38624 8.85571C8.17645 8.6744 7.88792 8.37899 7.6467 7.9448L13.6917 4.58645ZM10.5917 2.65985C9.99212 2.5686 9.33545 2.53847 8.67703 2.53847V9.45372C9.15923 9.45372 9.43225 9.47827 9.55139 9.4964L10.5917 2.65985ZM8.67703 2.53847C8.19639 2.53847 7.63501 2.55707 7.00702 2.59012L7.37047 9.49582C7.92998 9.46637 8.36079 9.45372 8.67703 9.45372V2.53847ZM3.73265 5.93997C3.66315 8.27226 3.57162 10.0997 3.46143 11.4441L10.3536 12.009C10.4777 10.494 10.5737 8.53243 10.6448 6.14597L3.73265 5.93997ZM7.13483 15.1767L10.1583 14.9775L9.7036 8.0772L6.68016 8.27642L7.13483 15.1767ZM15.1397 4.67188L11.7821 5.49752L12.3234 7.6987L14.5578 8.08018L15.1397 4.67188ZM14.9054 3.48828L11.4731 3.90684L11.4744 3.91715L14.9054 3.48828ZM14.8585 2.38672L12.1292 0.263941L11.4232 1.1717L11.4015 2.32149L14.8585 2.38672ZM15.6202 1.75391L17.4286 4.70092L17.4378 4.6953L17.4469 4.68963L15.6202 1.75391ZM16.839 1.20312L15.7951 -2.09318L15.7871 -2.09063L15.7791 -2.08805L16.839 1.20312ZM20.6476 12.0781L24.0773 12.5166L24.0775 12.5147L20.6476 12.0781ZM19.8976 16.5664L16.5203 15.8251L16.1146 17.6733L17.4526 19.0113L19.8976 16.5664ZM19.921 16.5898L17.4761 19.0348L19.1168 20.6755L21.257 19.7789L19.921 16.5898ZM21.6554 15.8633L23.9083 13.2404L22.2887 11.8492L20.3194 12.6742L21.6554 15.8633ZM22.7218 17.9492H26.1794V17.7474L26.1559 17.547L22.7218 17.9492ZM22.1944 18.6289L24.7645 20.9419L24.7758 20.9293L24.7871 20.9165L22.1944 18.6289ZM20.7999 19.7305L22.5548 22.7097L22.5609 22.7061L22.567 22.7024L20.7999 19.7305ZM16.9444 19.5898L14.6291 22.1578L14.6394 22.1671L14.6499 22.1764L16.9444 19.5898ZM16.2647 17.3867L19.7215 17.4647L19.7219 17.4449L19.7222 17.4251L16.2647 17.3867ZM16.2882 15.2773L19.7456 15.3158L19.7457 15.3033L19.7458 15.2908L16.2882 15.2773ZM16.3468 9.875L12.8902 9.79069L12.89 9.79912L12.8898 9.80755L16.3468 9.875ZM16.5811 4.91797L20.0306 5.15532L20.2453 2.03589L17.1631 1.50966L16.5811 4.91797ZM18.4973 3.84623C18.3967 3.43695 18.3521 3.18628 18.3363 3.05942L11.4744 3.91715C11.5367 4.41529 11.6484 4.95367 11.7821 5.49752L18.4973 3.84623ZM18.3376 3.06972C18.3226 2.94739 18.3099 2.74713 18.3155 2.45195L11.4015 2.32149C11.3914 2.85443 11.41 3.38854 11.4732 3.90684L18.3376 3.06972ZM17.5878 4.5095C17.4856 4.64088 17.4037 4.7114 17.3815 4.72989C17.3576 4.7497 17.3676 4.73838 17.4286 4.70092L13.8118 -1.19311C13.2761 -0.864394 12.6435 -0.397246 12.1292 0.263941L17.5878 4.5095ZM17.4469 4.68963C17.5219 4.64296 17.6629 4.57029 17.8988 4.4943L15.7791 -2.08805C15.0932 -1.86717 14.4217 -1.57265 13.7935 -1.18181L17.4469 4.68963ZM17.8828 4.49943C18.0082 4.45972 18.1402 4.4381 18.2921 4.4381V-2.47716C17.444 -2.47716 16.6072 -2.35035 15.7951 -2.09318L17.8828 4.49943ZM18.2921 4.4381C18.4975 4.4381 18.5531 4.46481 18.509 4.45033C18.4845 4.4423 18.436 4.42364 18.3728 4.38703C18.3088 4.34989 18.24 4.30021 18.1735 4.2377L22.9106 -0.800197C21.5449 -2.08439 19.8275 -2.47716 18.2921 -2.47716V4.4381ZM18.1735 4.2377C18.0975 4.16626 18.0318 4.08649 17.9789 4.0044C17.9266 3.92317 17.8953 3.85292 17.8779 3.8046C17.8449 3.71291 17.8696 3.72367 17.8696 3.89844H24.7849C24.7849 2.319 24.3405 0.544327 22.9106 -0.800197L18.1735 4.2377ZM17.8696 3.89844C17.8696 4.44298 17.8205 5.43473 17.704 6.94966L24.5989 7.48003C24.7167 5.94808 24.7849 4.72889 24.7849 3.89844H17.8696ZM17.704 6.94966C17.5918 8.40887 17.43 9.97242 17.2176 11.6416L24.0775 12.5147C24.3026 10.7463 24.4768 9.06769 24.5989 7.48003L17.704 6.94966ZM17.2178 11.6396C17.0083 13.2785 16.774 14.6694 16.5203 15.8251L23.2748 17.3077C23.5836 15.901 23.8493 14.2996 24.0773 12.5166L17.2178 11.6396ZM17.4526 19.0113L17.4761 19.0348L22.3659 14.1449L22.3425 14.1215L17.4526 19.0113ZM21.257 19.7789L22.9913 19.0524L20.3194 12.6742L18.585 13.4007L21.257 19.7789ZM19.4024 18.4861C19.3928 18.4779 19.3748 18.4608 19.3538 18.4342C19.3327 18.4075 19.3145 18.3788 19.3004 18.3513C19.27 18.2919 19.2791 18.2785 19.2876 18.3514L26.1559 17.547C25.9629 15.8991 25.236 14.3809 23.9083 13.2404L19.4024 18.4861ZM19.2641 17.9492C19.2641 17.5187 19.3456 17.1832 19.3975 17.0032C19.4541 16.807 19.5176 16.654 19.5604 16.5589C19.6439 16.3734 19.7245 16.2416 19.7568 16.1899C19.8253 16.0802 19.8739 16.0203 19.8581 16.0406C19.8375 16.0672 19.7625 16.1591 19.6018 16.3413L24.7871 20.9165C24.9779 20.7003 25.1666 20.4797 25.3218 20.2797C25.3938 20.1868 25.5083 20.035 25.6209 19.855C25.6751 19.7682 25.7721 19.6066 25.8666 19.3967C25.9169 19.2848 26.1794 18.7194 26.1794 17.9492H19.2641ZM19.6244 16.3159C19.5604 16.387 19.3909 16.5456 19.0328 16.7585L22.567 22.7024C23.3651 22.2279 24.1254 21.652 24.7645 20.9419L19.6244 16.3159ZM19.045 16.7513C19.0443 16.7517 19.0437 16.752 19.0421 16.7527C19.0405 16.7534 19.0345 16.7557 19.0226 16.7588C18.9999 16.7646 18.9404 16.7767 18.8311 16.7767V23.692C20.1139 23.692 21.3903 23.3956 22.5548 22.7097L19.045 16.7513ZM18.8311 16.7767C18.7637 16.7767 18.7983 16.7675 18.8971 16.8013C19.0048 16.838 19.1291 16.9058 19.239 17.0033L14.6499 22.1764C15.8854 23.2724 17.3853 23.692 18.8311 23.692V16.7767ZM19.2598 17.0219C19.5687 17.3005 19.687 17.5871 19.721 17.6975C19.7483 17.7858 19.7154 17.7346 19.7215 17.4647L12.808 17.3087C12.7756 18.7428 13.047 20.7313 14.6291 22.1578L19.2598 17.0219ZM19.7222 17.4251L19.7456 15.3158L12.8308 15.2389L12.8073 17.3483L19.7222 17.4251ZM19.7458 15.2908C19.7535 13.3046 19.7729 11.5223 19.8037 9.94245L12.8898 9.80755C12.8581 11.4308 12.8384 13.25 12.8306 15.2638L19.7458 15.2908ZM19.8034 9.95931C19.8411 8.412 19.9167 6.81078 20.0306 5.15532L13.1317 4.68062C13.0112 6.43141 12.9306 8.13488 12.8902 9.79069L19.8034 9.95931ZM17.1631 1.50966L15.7216 1.26357L14.5578 8.08018L15.9992 8.32628L17.1631 1.50966ZM27.9306 12.418L27.3544 15.8273L27.3621 15.8286L27.9306 12.418ZM29.4775 12.7578L28.5349 16.0845L32.9351 17.3312V12.7578L29.4775 12.7578ZM29.454 11.5859L25.9976 11.6769L25.9988 11.7223L26.0012 11.7677L29.454 11.5859ZM29.4071 11L32.7615 10.1614L32.6596 9.75366L32.4629 9.38222L29.4071 11ZM28.7978 10.5898L27.4357 13.7679L27.4492 13.7737L27.4626 13.7793L28.7978 10.5898ZM25.7509 10.5547L26.5125 13.9274L26.5321 13.923L26.5517 13.9183L25.7509 10.5547ZM24.1337 11L21.1727 12.7853L22.5785 15.117L25.1749 14.2971L24.1337 11ZM23.3603 9.48828L20.1358 10.7365L20.148 10.7681L20.1609 10.7995L23.3603 9.48828ZM23.1142 7.58984L20.9914 4.86056L19.9121 5.70001L19.6989 7.05058L23.1142 7.58984ZM33.4735 14.75L30.1204 13.9063L30.1185 13.914L30.1166 13.9217L33.4735 14.75ZM33.0165 16.5898L29.7363 15.4964L27.3042 22.7928L34.3759 19.769L33.0165 16.5898ZM34.7157 15.8633L37.2407 13.5012L35.5849 11.7312L33.3564 12.6841L34.7157 15.8633ZM35.3134 16.7539L32.2071 18.2725L32.2276 18.3144L32.2492 18.3557L35.3134 16.7539ZM35.6532 17.9492L38.7865 19.4114L39.1909 18.5447L39.0925 17.5934L35.6532 17.9492ZM34.9384 18.8516L37.3569 21.3226L37.3702 21.3096L37.3833 21.2965L34.9384 18.8516ZM30.4501 19.6602L27.8249 21.9104L27.838 21.9256L27.8513 21.9408L30.4501 19.6602ZM30.1103 17.1289L33.4321 18.0885L34.3819 14.8005L31.1038 13.8171L30.1103 17.1289ZM29.7587 17.0234L30.7522 13.7116L27.0319 12.5955L26.3541 16.4201L29.7587 17.0234ZM28.3642 19.5547L26.5058 16.6389L28.3642 19.5547ZM24.3798 19.7656L22.575 22.7149L22.5912 22.7247L22.6074 22.7344L24.3798 19.7656ZM23.1025 18.3828L20.0581 20.0221L20.0625 20.0303L20.067 20.0385L23.1025 18.3828ZM23.5829 13.2969L26.0708 15.698L26.0778 15.6908L26.0847 15.6836L23.5829 13.2969ZM27.7431 16.7422L27.4478 20.1872L27.9384 20.2292L28.4212 20.1327L27.7431 16.7422ZM28.4345 16.4141L26.5356 13.5245L26.5163 13.5372L26.4971 13.5502L28.4345 16.4141ZM29.536 15.0547L32.9434 15.6422L33.0673 14.9235L32.8904 14.2161L29.536 15.0547ZM29.4657 14.7734L32.8201 13.9348L32.2498 11.6535L29.9185 11.3456L29.4657 14.7734ZM27.3212 14.7852L25.9794 11.5985L25.2574 11.9025L24.7369 12.488L27.3212 14.7852ZM27.1337 16.4023L24.189 18.2145L24.2138 18.2549L24.2398 18.2945L27.1337 16.4023ZM26.4071 15.735C26.6384 15.735 26.9502 15.7589 27.3544 15.8272L28.5068 9.00869C27.8016 8.88951 27.0978 8.81972 26.4071 8.81972V15.735ZM27.3621 15.8286C27.8191 15.9047 28.2078 15.9918 28.5349 16.0845L30.42 9.43114C29.8096 9.25818 29.167 9.11872 28.499 9.00739L27.3621 15.8286ZM32.9351 12.7578V12.3945L26.0198 12.3945V12.7578L32.9351 12.7578ZM32.9351 12.3945C32.9351 12.08 32.925 11.7486 32.9069 11.4042L26.0012 11.7677C26.0143 12.017 26.0198 12.2247 26.0198 12.3945L32.9351 12.3945ZM32.9104 11.495C32.9045 11.2703 32.8929 10.6871 32.7615 10.1614L26.0527 11.8386C26.0331 11.7601 26.0205 11.6962 26.0128 11.6535C26.0049 11.6096 25.9998 11.5749 25.9968 11.5524C25.991 11.5094 25.9893 11.4866 25.9898 11.4925C25.9901 11.4963 25.9914 11.5134 25.993 11.5468C25.9945 11.5795 25.9961 11.6224 25.9976 11.6769L32.9104 11.495ZM32.4629 9.38222C32.0441 8.59105 31.442 8.13765 31.1327 7.92945C30.7769 7.68992 30.419 7.52017 30.1329 7.40039L27.4626 13.7793C27.5124 13.8001 27.4241 13.7691 27.2714 13.6663C27.1904 13.6117 27.0556 13.5133 26.9022 13.3621C26.7511 13.2132 26.5374 12.9692 26.3513 12.6178L32.4629 9.38222ZM30.1598 7.41178C29.1426 6.97585 27.9961 6.92128 27.1806 6.92128V13.8365C27.315 13.8365 27.4258 13.8397 27.5152 13.8446C27.6053 13.8495 27.6655 13.8557 27.7002 13.8602C27.7362 13.8649 27.7314 13.8661 27.6949 13.8572C27.6609 13.849 27.5671 13.8242 27.4357 13.7679L30.1598 7.41178ZM27.1806 6.92128C26.4252 6.92128 25.6793 7.01744 24.95 7.19109L26.5517 13.9183C26.8068 13.8576 27.0141 13.8365 27.1806 13.8365V6.92128ZM24.9893 7.18198C24.3907 7.31716 23.7564 7.49321 23.0925 7.70287L25.1749 14.2971C25.6985 14.1318 26.1424 14.011 26.5125 13.9274L24.9893 7.18198ZM27.0947 9.21467C26.8481 8.80554 26.6758 8.46059 26.5596 8.17707L20.1609 10.7995C20.4353 11.4691 20.7787 12.132 21.1727 12.7853L27.0947 9.21467ZM26.5847 8.2401C26.5401 8.12482 26.5366 8.06261 26.5366 8.03516H19.6214C19.6214 8.97645 19.8054 9.88299 20.1358 10.7365L26.5847 8.2401ZM26.5366 8.03516C26.5366 8.06953 26.5339 8.10138 26.5295 8.1291L19.6989 7.05058C19.6476 7.37518 19.6214 7.70391 19.6214 8.03516H26.5366ZM25.2369 10.3191C25.7562 9.91528 26.5878 9.57091 28.0243 9.57091V2.65565C25.4453 2.65565 23.0034 3.29566 20.9914 4.86056L25.2369 10.3191ZM28.0243 9.57091C28.8816 9.57091 29.5306 9.66833 30.0116 9.80828L31.9433 3.16828C30.7056 2.80823 29.3858 2.65565 28.0243 2.65565V9.57091ZM30.0116 9.80828C30.1567 9.85047 30.2473 9.90616 30.3613 10.0539L35.8358 5.82894C34.8404 4.53915 33.517 3.62609 31.9433 3.16828L30.0116 9.80828ZM30.3613 10.0539C30.2788 9.94702 30.4729 10.1089 30.4729 11L37.3882 11C37.3882 9.25044 37.0277 7.37329 35.8358 5.82894L30.3613 10.0539ZM30.4729 11C30.4729 12.0138 30.3535 12.98 30.1204 13.9063L36.8267 15.5937C37.203 14.0981 37.3882 12.5643 37.3882 11L30.4729 11ZM30.1166 13.9217C29.9683 14.5228 29.8565 14.9748 29.781 15.2787C29.7431 15.4312 29.715 15.5437 29.6963 15.6182C29.6867 15.6562 29.6807 15.6798 29.6775 15.6923C29.6757 15.6994 29.6764 15.6967 29.6785 15.6887C29.6794 15.6852 29.6828 15.6727 29.6875 15.6556C29.6899 15.6471 29.6943 15.6314 29.7002 15.6116C29.7042 15.5979 29.7174 15.5532 29.7363 15.4964L36.2967 17.6832C36.3159 17.6257 36.3294 17.5801 36.3338 17.565C36.34 17.5439 36.3449 17.5266 36.3478 17.5162C36.3536 17.4953 36.3583 17.4779 36.3608 17.4684C36.3662 17.4482 36.3712 17.4288 36.3749 17.4145C36.3827 17.3842 36.3922 17.3467 36.4026 17.3051C36.4239 17.2205 36.454 17.1001 36.4923 16.9459C36.5691 16.6365 36.6819 16.1803 36.8305 15.5783L30.1166 13.9217ZM34.3759 19.769L36.0751 19.0425L33.3564 12.6841L31.6571 13.4107L34.3759 19.769ZM32.1907 18.2254C32.145 18.1765 32.1597 18.1755 32.2071 18.2725L38.4197 15.2353C38.1234 14.6292 37.7396 14.0345 37.2407 13.5012L32.1907 18.2254ZM32.2492 18.3557C32.2225 18.3047 32.2109 18.2687 32.2073 18.2561C32.204 18.2444 32.2091 18.2584 32.214 18.305L39.0925 17.5934C39.0083 16.7796 38.7921 15.9451 38.3776 15.1521L32.2492 18.3557ZM32.52 16.487C32.5478 16.4274 32.5737 16.3786 32.5948 16.3412C32.616 16.3037 32.6341 16.2744 32.6475 16.2538C32.6734 16.214 32.6876 16.1968 32.6823 16.2035C32.6775 16.2095 32.6607 16.2302 32.6278 16.2665C32.5952 16.3024 32.5512 16.349 32.4935 16.4067L37.3833 21.2965C37.8078 20.872 38.4096 20.2191 38.7865 19.4114L32.52 16.487ZM32.5199 16.3805C32.4264 16.472 32.2591 16.6052 31.973 16.7567L35.2085 22.8683C35.9848 22.4573 36.716 21.9499 37.3569 21.3226L32.5199 16.3805ZM31.973 16.7567C31.9549 16.7662 31.9426 16.7715 31.9358 16.7741C31.9291 16.7767 31.9262 16.7774 31.9266 16.7773C31.927 16.7772 31.9284 16.7769 31.9299 16.7767C31.9314 16.7765 31.9306 16.7767 31.9267 16.7767V23.692C33.0915 23.692 34.1994 23.4026 35.2085 22.8683L31.973 16.7567ZM31.9267 16.7767C31.9366 16.7767 32.0914 16.7777 32.3244 16.8683C32.5762 16.9662 32.8368 17.1378 33.049 17.3795L27.8513 21.9408C29.0142 23.266 30.5745 23.692 31.9267 23.692V16.7767ZM33.0753 17.41C33.2148 17.5727 33.3097 17.7519 33.3637 17.9153C33.415 18.0702 33.4155 18.1676 33.4155 18.1719H26.5003C26.5003 19.4269 26.8532 20.7767 27.8249 21.9104L33.0753 17.41ZM33.4155 18.1719C33.4155 18.1709 33.4156 18.1651 33.4173 18.1531C33.4191 18.1409 33.4231 18.1197 33.4321 18.0885L26.7885 16.1693C26.6026 16.8126 26.5003 17.4832 26.5003 18.1719H33.4155ZM31.1038 13.8171L30.7522 13.7116L28.7652 20.3352L29.1167 20.4407L31.1038 13.8171ZM26.3541 16.4201C26.324 16.5899 26.2914 16.7123 26.264 16.7956C26.2505 16.8366 26.2389 16.8661 26.2306 16.8857C26.2222 16.9052 26.2174 16.9139 26.2176 16.9136C26.2182 16.9125 26.2391 16.875 26.2897 16.8192C26.3417 16.7618 26.414 16.6975 26.5058 16.6389L30.2226 22.4704C32.0783 21.2876 32.8583 19.3479 33.1633 17.6268L26.3541 16.4201ZM26.5058 16.6389C26.3613 16.731 26.2231 16.7767 26.0087 16.7767V23.692C27.513 23.692 28.9451 23.2846 30.2226 22.4704L26.5058 16.6389ZM26.0087 16.7767C26.0524 16.7767 26.0978 16.7835 26.1358 16.7944C26.1721 16.8049 26.1783 16.8124 26.1522 16.7968L22.6074 22.7344C23.6202 23.3391 24.7701 23.692 26.0087 23.692V16.7767ZM26.1846 16.8164C26.1911 16.8204 26.1975 16.825 26.2028 16.8293C26.2081 16.8337 26.2097 16.8357 26.2077 16.8336C26.2046 16.8302 26.1782 16.801 26.1379 16.7271L20.067 20.0385C20.6505 21.1082 21.4769 22.0429 22.575 22.7149L26.1846 16.8164ZM26.1468 16.7436C26.1336 16.719 26.0679 16.59 26.0679 16.25H19.1526C19.1526 17.535 19.4151 18.8278 20.0581 20.0221L26.1468 16.7436ZM26.0679 16.25C26.0679 15.8808 26.1151 15.6889 26.1375 15.6207C26.155 15.5678 26.146 15.6201 26.0708 15.698L21.095 10.8957C19.6164 12.4278 19.1526 14.41 19.1526 16.25H26.0679ZM26.0847 15.6836C26.0556 15.714 26.0226 15.7409 25.9907 15.7614C25.9595 15.7814 25.9424 15.7869 25.9493 15.7844C25.9673 15.778 26.1002 15.735 26.4071 15.735V8.81972C24.5381 8.81972 22.5692 9.35039 21.0812 10.9102L26.0847 15.6836ZM28.4212 20.1327C29.2585 19.9652 29.9301 19.5768 30.3718 19.278L26.4971 13.5502C26.4741 13.5657 26.5031 13.5436 26.58 13.5071C26.6532 13.4724 26.8196 13.4008 27.065 13.3517L28.4212 20.1327ZM30.3333 19.3036C30.8851 18.941 31.3778 18.504 31.8037 17.9993L26.5184 13.5398C26.5191 13.539 26.522 13.5357 26.5267 13.5316C26.5313 13.5275 26.5348 13.525 26.5356 13.5245L30.3333 19.3036ZM31.8037 17.9993C32.2525 17.4673 32.7649 16.6777 32.9434 15.6422L26.1287 14.4672C26.2291 13.8848 26.4915 13.5717 26.5184 13.5398L31.8037 17.9993ZM32.8904 14.2161L32.8201 13.9348L26.1113 15.612L26.1817 15.8933L32.8904 14.2161ZM29.9185 11.3456C29.3375 11.2688 28.7437 11.2338 28.1415 11.2338V18.149C28.4769 18.149 28.7659 18.1687 29.013 18.2013L29.9185 11.3456ZM28.1415 11.2338C27.7687 11.2338 26.8443 11.2343 25.9794 11.5985L28.663 17.9718C28.4569 18.0586 28.292 18.1003 28.206 18.1194C28.114 18.1399 28.0513 18.1477 28.0302 18.1501C27.9932 18.1543 28.021 18.149 28.1415 18.149V11.2338ZM24.7369 12.488C23.9819 13.3374 23.4886 14.4492 23.4886 15.7227H30.4038C30.4038 15.9811 30.3547 16.2536 30.2503 16.5146C30.1478 16.7708 30.015 16.959 29.9055 17.0823L24.7369 12.488ZM23.4886 15.7227C23.4886 16.5802 23.7121 17.4395 24.189 18.2145L30.0784 14.5902C30.3053 14.9589 30.4038 15.3651 30.4038 15.7227H23.4886ZM24.2398 18.2945C25.0354 19.5114 26.2729 20.0865 27.4478 20.1872L28.0384 13.2972C28.3027 13.3199 28.6737 13.399 29.0698 13.6199C29.4782 13.8477 29.8017 14.1646 30.0276 14.5102L24.2398 18.2945ZM39.3503 18.5352L40.8707 21.6406L43.3995 20.4025L42.6993 17.6753L39.3503 18.5352ZM38.5183 16.0273L35.2742 17.2237L35.277 17.2312L38.5183 16.0273ZM36.1863 10.7539L39.0541 8.82247L38.2308 7.59995L36.7787 7.34741L36.1863 10.7539ZM35.1081 10.5664L31.8538 11.7346L32.5336 13.6282L34.5157 13.9729L35.1081 10.5664ZM34.8503 9.55859L31.4289 10.0576L31.4348 10.0982L31.4417 10.1388L34.8503 9.55859ZM34.7097 8.25781L31.4582 7.08175L31.2037 7.78542L31.2629 8.53137L34.7097 8.25781ZM36.3034 6.41797L34.7083 3.3503L34.6955 3.35694L34.6828 3.36368L36.3034 6.41797ZM39.4089 6.74609L37.138 9.35343L37.1604 9.37289L37.183 9.39196L39.4089 6.74609ZM40.5456 8.31641L37.3575 9.65464L37.3675 9.67854L37.3779 9.70229L40.5456 8.31641ZM41.2605 10.5312L37.8972 11.3335L37.902 11.3536L37.907 11.3736L41.2605 10.5312ZM42.0574 16.6602L38.6037 16.8262L38.7932 20.7679L42.6759 20.062L42.0574 16.6602ZM42.3152 16.6133L42.9337 20.0151L44.7254 19.6894L45.4703 18.0276L42.3152 16.6133ZM43.0886 13.6953L39.6815 13.1064L39.6797 13.1167L39.678 13.1269L43.0886 13.6953ZM43.4402 10.0508L46.8975 10.0972L46.9379 7.0851L43.9598 6.63242L43.4402 10.0508ZM41.9753 9.82812L38.6305 10.7041L39.2068 12.9047L41.4557 13.2465L41.9753 9.82812ZM41.7175 7.51953L39.037 5.33544L38.2599 6.28922V7.51953H41.7175ZM42.4558 6.88672L44.3574 9.77443L44.3656 9.76906L44.3737 9.76364L42.4558 6.88672ZM47.1902 13.7891L43.9639 12.5456L43.961 12.5529L43.9583 12.5603L47.1902 13.7891ZM40.4167 20.7148L39.0729 17.529L36.3637 18.6718L37.0564 21.5295L40.4167 20.7148ZM40.5105 21.1016L37.1502 21.9162L37.7209 24.2705L40.1286 24.538L40.5105 21.1016ZM43.5339 20.8086L46.1107 18.5031L44.7441 16.9757L42.7482 17.4414L43.5339 20.8086ZM44.2605 23.3984L46.6636 25.8844L47.4207 25.1526L47.6413 24.1229L44.2605 23.3984ZM36.5261 20.3633L33.8699 18.1498L33.845 18.1796L33.8208 18.2101L36.5261 20.3633ZM37.6042 19.4492L39.3321 22.4442L39.341 22.439L39.3499 22.4338L37.6042 19.4492ZM42.6993 17.6753C42.5047 16.9175 42.1762 15.9451 41.7596 14.8234L35.277 17.2312C35.6729 18.297 35.899 18.9966 36.0013 19.395L42.6993 17.6753ZM41.7623 14.831C41.3336 13.6684 40.8822 12.5455 40.4076 11.4631L34.0743 14.24C34.4904 15.1888 34.8905 16.1832 35.2742 17.2237L41.7623 14.831ZM40.4076 11.4631C39.9622 10.4474 39.5037 9.48997 39.0541 8.82247L33.3184 12.6853C33.3174 12.6839 33.3392 12.7166 33.3845 12.797C33.4283 12.8748 33.4847 12.9804 33.5541 13.1186C33.6941 13.3969 33.8669 13.7669 34.0743 14.24L40.4076 11.4631ZM36.7787 7.34741L35.7006 7.15991L34.5157 13.9729L35.5938 14.1604L36.7787 7.34741ZM38.3624 9.3982C38.331 9.31058 38.2923 9.17461 38.2589 8.97841L31.4417 10.1388C31.5333 10.6769 31.6665 11.2129 31.8538 11.7346L38.3624 9.3982ZM38.2718 9.05963C38.2307 8.77788 38.1912 8.4222 38.1565 7.98426L31.2629 8.53137C31.3063 9.0778 31.3606 9.58931 31.4289 10.0576L38.2718 9.05963ZM37.9612 9.43388C37.9578 9.44322 37.9545 9.45089 37.9518 9.45668C37.9491 9.46246 37.9473 9.46558 37.9471 9.46596C37.9464 9.46704 37.9537 9.45424 37.9753 9.42836L32.6628 5.00133C32.1563 5.60912 31.7399 6.30291 31.4582 7.08175L37.9612 9.43388ZM37.9753 9.42836C37.9693 9.43552 37.9591 9.44619 37.9458 9.45695C37.9326 9.46764 37.9238 9.47242 37.9241 9.47226L34.6828 3.36368C33.9094 3.77403 33.2279 4.32325 32.6628 5.00133L37.9753 9.42836ZM37.8986 9.48563C37.8485 9.51168 37.7881 9.53515 37.7221 9.55104C37.6565 9.56682 37.6031 9.57091 37.5691 9.57091V2.65565C36.5774 2.65565 35.6063 2.88334 34.7083 3.3503L37.8986 9.48563ZM37.5691 9.57091C37.6119 9.57091 37.5644 9.57665 37.4611 9.54112C37.3507 9.50315 37.235 9.43791 37.138 9.35343L41.6798 4.13876C40.4693 3.08448 39.0084 2.65565 37.5691 2.65565V9.57091ZM37.183 9.39196C37.2273 9.42917 37.2897 9.4931 37.3575 9.65464L43.7338 6.97817C43.2703 5.87409 42.5749 4.89114 41.6348 4.10023L37.183 9.39196ZM37.3779 9.70229C37.5496 10.0948 37.7291 10.6289 37.8972 11.3335L44.6237 9.729C44.3856 8.73048 44.0885 7.78796 43.7134 6.93052L37.3779 9.70229ZM37.907 11.3736C38.2472 12.7277 38.4932 14.5273 38.6037 16.8262L45.511 16.4941C45.3871 13.918 45.1019 11.6316 44.6139 9.68891L37.907 11.3736ZM42.6759 20.062L42.9337 20.0151L41.6966 13.2114L41.4388 13.2583L42.6759 20.062ZM45.4703 18.0276C45.9523 16.9523 46.2692 15.6436 46.4992 14.2637L39.678 13.1269C39.4861 14.2782 39.2874 14.9148 39.16 15.1989L45.4703 18.0276ZM46.4957 14.2842C46.7423 12.8575 46.8792 11.4606 46.8975 10.0972L39.9828 10.0044C39.9699 10.9691 39.8724 12.0019 39.6815 13.1064L46.4957 14.2842ZM43.9598 6.63242L42.4949 6.40976L41.4557 13.2465L42.9206 13.4691L43.9598 6.63242ZM45.3201 8.9521C45.2417 8.65269 45.1751 8.19022 45.1751 7.51953H38.2599C38.2599 8.61447 38.3652 9.69106 38.6305 10.7041L45.3201 8.9521ZM44.398 9.70362C44.3642 9.74502 44.336 9.77521 44.3166 9.79484C44.2971 9.8145 44.2845 9.82548 44.2812 9.82835C44.2759 9.83291 44.2975 9.81388 44.3574 9.77443L40.5541 3.99901C40.0502 4.33087 39.5015 4.76537 39.037 5.33544L44.398 9.70362ZM44.3737 9.76364C44.4031 9.74407 44.502 9.68524 44.7093 9.61613L42.5225 3.05574C41.8392 3.28351 41.1647 3.59187 40.5378 4.0098L44.3737 9.76364ZM44.7093 9.61613C44.7798 9.59266 44.8812 9.57091 45.0339 9.57091V2.65565C44.1866 2.65565 43.3428 2.78234 42.5225 3.05574L44.7093 9.61613ZM45.0339 9.57091C45.2588 9.57091 45.3145 9.60033 45.2595 9.5819C45.1875 9.55781 45.0216 9.48267 44.8519 9.31225C44.6824 9.14211 44.6094 8.97779 44.5869 8.91015C44.57 8.85911 44.5997 8.91924 44.5997 9.14844H51.515C51.515 7.60711 51.1292 5.81534 49.7511 4.43189C48.3706 3.04599 46.5781 2.65565 45.0339 2.65565V9.57091ZM44.5997 9.14844C44.5997 10.3132 44.3904 11.4388 43.9639 12.5456L50.4165 15.0325C51.1461 13.1393 51.515 11.1711 51.515 9.14844H44.5997ZM43.9583 12.5603C43.557 13.6156 42.9497 14.5836 42.1032 15.4762L47.1208 20.2348C48.5712 18.7055 49.6827 16.9625 50.4221 15.0179L43.9583 12.5603ZM42.1032 15.4762C41.3065 16.3163 40.3136 17.0057 39.0729 17.529L41.7605 23.9007C43.8167 23.0334 45.6207 21.8165 47.1208 20.2348L42.1032 15.4762ZM37.0564 21.5295L37.1502 21.9162L43.8708 20.2869L43.777 19.9002L37.0564 21.5295ZM40.1286 24.538C40.4607 24.5749 40.7953 24.5943 41.1316 24.5943V17.6791C41.0616 17.6791 40.9821 17.6751 40.8923 17.6651L40.1286 24.538ZM41.1316 24.5943C42.1492 24.5943 43.2288 24.4303 44.3196 24.1758L42.7482 17.4414C41.9641 17.6244 41.4421 17.6791 41.1316 17.6791V24.5943ZM40.9571 23.1141C40.9955 23.157 40.9675 23.1376 40.932 23.0509C40.8938 22.9577 40.8732 22.8503 40.8732 22.7539H47.7884C47.7884 21.0861 47.1283 19.6404 46.1107 18.5031L40.9571 23.1141ZM40.8732 22.7539C40.8732 22.7071 40.8785 22.679 40.8796 22.674L47.6413 24.1229C47.7362 23.6804 47.7884 23.2226 47.7884 22.7539H40.8732ZM41.8573 20.9124C41.7109 21.054 41.4605 21.2411 41.0405 21.4371L43.9648 27.7036C44.9511 27.2433 45.8725 26.6491 46.6636 25.8844L41.8573 20.9124ZM41.0405 21.4371C40.8341 21.5334 40.5657 21.6049 40.1824 21.6049V28.5201C41.4865 28.5201 42.765 28.2635 43.9648 27.7036L41.0405 21.4371ZM40.1824 21.6049C39.466 21.6049 39.2549 21.4454 39.248 21.4404L35.1636 27.0205C36.6723 28.1249 38.4456 28.5201 40.1824 28.5201V21.6049ZM39.248 21.4404C39.2873 21.4691 39.3392 21.515 39.3915 21.5793C39.444 21.6439 39.4823 21.7092 39.5074 21.7652C39.5577 21.8771 39.5267 21.8845 39.5267 21.6992H32.6114C32.6114 23.6782 33.3277 25.6768 35.1636 27.0205L39.248 21.4404ZM39.5267 21.6992C39.5267 21.796 39.5113 21.9386 39.4548 22.1036C39.3978 22.2702 39.3157 22.4106 39.2314 22.5165L33.8208 18.2101C33.0094 19.2295 32.6114 20.4413 32.6114 21.6992H39.5267ZM39.1823 22.5768C39.2446 22.502 39.2932 22.4666 39.3321 22.4442L35.8764 16.4543C35.1027 16.9006 34.4326 17.4745 33.8699 18.1498L39.1823 22.5768ZM39.3499 22.4338C39.6559 22.2548 40.1502 21.9933 40.8707 21.6406L37.83 15.4297C37.0504 15.8114 36.3806 16.1593 35.8585 16.4646L39.3499 22.4338Z" fill="black" mask="url(#path-1-outside-1_216_1153)"/>
</svg>
