<svg width="32" height="32" viewBox="0 0 32 32" fill="none" xmlns="http://www.w3.org/2000/svg">
<path fill-rule="evenodd" clip-rule="evenodd" d="M14.2762 23.6095C13.7555 24.1302 12.9113 24.1302 12.3906 23.6095L5.72394 16.9428C5.20324 16.4221 5.20324 15.5779 5.72394 15.0572L12.3906 8.39052C12.9113 7.86983 13.7555 7.86983 14.2762 8.39052C14.7969 8.91122 14.7969 9.75544 14.2762 10.2761L8.55237 16L14.2762 21.7239C14.7969 22.2446 14.7969 23.0888 14.2762 23.6095Z" fill="white"/>
<path fill-rule="evenodd" clip-rule="evenodd" d="M6.66675 16C6.66675 15.2636 7.2637 14.6666 8.00008 14.6666H25.3334C26.0698 14.6666 26.6667 15.2636 26.6667 16C26.6667 16.7363 26.0698 17.3333 25.3334 17.3333H8.00008C7.2637 17.3333 6.66675 16.7363 6.66675 16Z" fill="white"/>
</svg>
