<svg width="70" height="18" viewBox="0 0 70 18" fill="none" xmlns="http://www.w3.org/2000/svg">
<path fill-rule="evenodd" clip-rule="evenodd" d="M2.51472 6.80927C2.54835 6.64159 2.67261 6.35872 2.92714 6.00591C3.17463 5.66286 3.52089 5.2877 3.95221 4.93443C4.81686 4.22624 5.98719 3.6346 7.33622 3.53312C10.0155 3.33158 11.5725 5.0789 12.3959 6.29301L11.3748 6.03038C11.056 5.94838 10.7306 6.13835 10.648 6.45468C10.5654 6.77102 10.7568 7.09392 11.0756 7.17591L12.8268 7.62633C13.5503 7.81241 14.2769 7.33565 14.3876 6.60219L14.6602 4.79661C14.709 4.47343 14.4845 4.1722 14.1588 4.12379C13.8331 4.07538 13.5295 4.29813 13.4807 4.6213L13.3385 5.56343C12.4145 4.22255 10.5213 2.10674 7.24608 2.35312C5.60017 2.47693 4.20349 3.19418 3.19305 4.02177C2.68683 4.43639 2.26853 4.88585 1.95743 5.31706C1.65339 5.7385 1.42506 6.17952 1.34508 6.57828C1.2808 6.89878 1.49052 7.2103 1.81351 7.27409C2.1365 7.33787 2.45044 7.12977 2.51472 6.80927ZM13.0732 11.9942C13.3277 11.6414 13.452 11.3585 13.4856 11.1908C13.5499 10.8703 13.8638 10.6622 14.1868 10.726C14.5098 10.7898 14.7195 11.1013 14.6552 11.4218C14.5753 11.8206 14.3469 12.2616 14.0429 12.683C13.7318 13.1142 13.3135 13.5637 12.8073 13.9783C11.7968 14.8059 10.4002 15.5232 8.75425 15.647C5.47905 15.8933 3.58578 13.7775 2.6618 12.4367L2.51958 13.3788C2.47079 13.702 2.16722 13.9247 1.84153 13.8763C1.51584 13.8279 1.29137 13.5266 1.34016 13.2035L1.61272 11.3979C1.72344 10.6644 2.45003 10.1877 3.17351 10.3738L4.92472 10.8242C5.24351 10.9062 5.43495 11.2291 5.35232 11.5454C5.2697 11.8617 4.94428 12.0517 4.6255 11.9697L3.60438 11.7071C4.42778 12.9212 5.98485 14.6685 8.6641 14.467C10.0131 14.3655 11.1835 13.7738 12.0481 13.0656C12.4794 12.7124 12.8257 12.3372 13.0732 11.9942ZM5.3335 7.00004C4.96531 7.00004 4.66683 6.70156 4.66683 6.33337C4.66683 5.96518 4.96531 5.66671 5.3335 5.66671C5.70169 5.66671 6.00016 5.96518 6.00016 6.33337C6.00016 6.70156 5.70169 7.00004 5.3335 7.00004ZM7.67385 7.25668C7.75683 6.91449 8.2435 6.91449 8.32647 7.25668L8.55479 8.19823C8.58441 8.3204 8.6798 8.41579 8.80197 8.44542L9.74352 8.67373C10.0857 8.75671 10.0857 9.24337 9.74352 9.32635L8.80197 9.55466C8.6798 9.58429 8.58441 9.67968 8.55479 9.80185L8.32647 10.7434C8.2435 11.0856 7.75683 11.0856 7.67385 10.7434L7.44554 9.80185C7.41592 9.67968 7.32053 9.58429 7.19836 9.55466L6.2568 9.32635C6.23542 9.32116 6.21537 9.3144 6.19665 9.30626C5.91595 9.18412 5.936 8.75152 6.2568 8.67373L7.19836 8.44542C7.32053 8.41579 7.41592 8.3204 7.44554 8.19823L7.67385 7.25668ZM10.0002 11.6667C10.0002 12.0349 10.2986 12.3334 10.6668 12.3334C11.035 12.3334 11.3335 12.0349 11.3335 11.6667C11.3335 11.2985 11.035 11 10.6668 11C10.2986 11 10.0002 11.2985 10.0002 11.6667Z" fill="#101112"/>
<path d="M29.6473 3.53125V13.9492H28.7566V8.53516H27.3387V13.4219H26.4598V3.75391H27.3387V7.75H28.7566V3.53125H29.6473ZM20.5887 11.0898C22.0887 10.2637 22.8914 8.49414 22.8855 6.37891V5.54688H20.8348V4.77344H25.7098V5.54688H23.7762V6.37891C23.7762 8.2832 24.5672 9.96484 26.0496 10.7266L25.4988 11.4414C24.45 10.8672 23.7234 9.8418 23.3543 8.57031C22.9969 10.0176 22.2586 11.1543 21.1629 11.793L20.5887 11.0898ZM33.5707 5.60547C33.5766 6.75977 34.3793 7.92578 35.7152 8.42969L35.2348 9.13281C34.2328 8.74609 33.5121 8.00195 33.1371 7.10547C32.7563 8.0957 32.0063 8.98047 30.9809 9.42578L30.477 8.71094C31.848 8.11328 32.6859 6.76562 32.6918 5.60547V4.1875H33.5707V5.60547ZM32.3754 12.0742C32.3637 10.8965 33.6996 10.2051 35.8676 10.2109C38.0238 10.2051 39.3656 10.8965 39.3715 12.0742C39.3656 13.2402 38.0238 13.9258 35.8676 13.9258C33.6996 13.9258 32.3637 13.2402 32.3754 12.0742ZM33.2895 12.0742C33.2777 12.7832 34.268 13.2168 35.8676 13.2109C37.4496 13.2168 38.4457 12.7832 38.4574 12.0742C38.4457 11.3535 37.4496 10.9199 35.8676 10.9141C34.268 10.9199 33.2777 11.3535 33.2895 12.0742ZM36.184 9.64844V3.74219H37.0512V6.34375H38.434V3.54297H39.3129V9.97656H38.434V7.10547H37.0512V9.64844H36.184ZM43.8223 5.17188C43.8105 6.66016 44.8711 7.9668 46.4004 8.48828L45.8848 9.20312C44.7363 8.77539 43.834 7.92578 43.3828 6.83008C42.9375 8.07812 41.9883 9.04492 40.7285 9.51953L40.2246 8.76953C41.8301 8.20703 42.8965 6.82422 42.9082 5.20703V4.12891H43.8223V5.17188ZM41.9238 11.9805C41.918 10.7266 43.248 10.0059 45.416 10.0117C47.5781 10.0059 48.9082 10.7266 48.9082 11.9805C48.9082 13.2227 47.5781 13.9258 45.416 13.9258C43.248 13.9258 41.918 13.2227 41.9238 11.9805ZM42.8379 11.9805C42.832 12.7363 43.8164 13.1934 45.416 13.1875C47.0098 13.1934 47.9941 12.7363 47.9941 11.9805C47.9941 11.2012 47.0098 10.7383 45.416 10.7383C43.8164 10.7383 42.832 11.2012 42.8379 11.9805ZM45.627 6.53125V5.76953H47.9473V3.53125H48.873V9.70703H47.9473V6.53125H45.627ZM58.0699 3.53125V7.83203H59.816V8.59375H58.0699V13.9492H57.1559V3.53125H58.0699ZM49.9488 5.96875V5.20703H52.6324V3.66016H53.5465V5.20703H56.148V5.96875H49.9488ZM50.5465 9.22656C50.5406 7.82031 51.6188 6.83594 53.1012 6.83594C54.5719 6.83594 55.6441 7.82031 55.6559 9.22656C55.6441 10.6387 54.5719 11.6172 53.1012 11.6172C51.6188 11.6172 50.5406 10.6387 50.5465 9.22656ZM51.4254 9.22656C51.4195 10.1758 52.1285 10.8438 53.1012 10.832C54.0621 10.8438 54.7652 10.1758 54.777 9.22656C54.7652 8.2832 54.0621 7.60352 53.1012 7.60938C52.1285 7.60352 51.4195 8.2832 51.4254 9.22656ZM68.3918 3.53125V13.9492H67.466V3.53125H68.3918ZM59.9074 11.2422C62.7258 9.90625 64.1672 7.9082 64.3723 5.41797H60.3879V4.66797H65.3098C65.298 7.66211 63.9035 10.3164 60.4113 11.9922L59.9074 11.2422Z" fill="#101112"/>
</svg>
