<svg width="77" height="24" viewBox="0 0 77 24" fill="none" xmlns="http://www.w3.org/2000/svg">
<path d="M12 6V18M20 5V19M4 10V14M8 3V21M16 8V16" stroke="white" stroke-width="2" stroke-linecap="round"/>
<path d="M39.4141 12.3438C39.4141 16.0391 37.125 18.1562 34.1328 18.1562C31.1172 18.1562 28.8359 16.0234 28.8359 12.3438C28.8359 8.64844 31.1172 6.53125 34.1328 6.53125C37.125 6.53125 39.4141 8.64844 39.4141 12.3438ZM31.2266 12.3438C31.2266 14.7578 32.375 16.0703 34.1328 16.0781C35.875 16.0703 37.0312 14.7578 37.0234 12.3438C37.0312 9.92188 35.875 8.61719 34.1328 8.60938C32.375 8.61719 31.2266 9.92188 31.2266 12.3438ZM44.9234 9.51562V11.25H43.3297V15.3906C43.3219 16.0703 43.6578 16.2344 44.1266 16.25C44.3609 16.25 44.7672 16.2266 45.0484 16.2031V18.0312C44.7984 18.0703 44.3844 18.1172 43.8141 18.1094C42.1422 18.1172 41.0016 17.3672 41.0172 15.7188V11.25H39.8453V9.51562H41.0172V7.48438H43.3297V9.51562H44.9234ZM48.2766 13.0938V18H45.9641V6.6875H48.2141V11H48.3078C48.6984 10.0078 49.55 9.40625 50.8391 9.40625C52.6125 9.40625 53.7766 10.6016 53.7766 12.5938V18H51.4641V13C51.4641 11.9453 50.9016 11.3281 49.9328 11.3281C48.9562 11.3281 48.2766 11.9766 48.2766 13.0938ZM58.8016 18.1719C56.2 18.1641 54.6063 16.4844 54.6141 13.7969C54.6063 11.1797 56.2234 9.40625 58.7078 9.40625C60.9344 9.40625 62.6922 10.8125 62.6922 13.7031V14.3594H56.8953C56.8953 15.6406 57.6531 16.4297 58.8484 16.4375C59.6375 16.4297 60.2 16.0859 60.4266 15.5781H62.6297C62.3016 17.1484 60.8953 18.1641 58.8016 18.1719ZM56.8953 12.9062H60.5047C60.4969 11.875 59.7859 11.1328 58.7547 11.1406C57.6922 11.1328 56.9422 11.9297 56.8953 12.9062ZM63.5453 18V9.51562H65.7797V10.9844H65.8734C66.1781 9.94531 66.9672 9.39062 67.9203 9.39062C68.1547 9.39062 68.4516 9.42188 68.6547 9.46875V11.5312C68.4359 11.4609 67.9906 11.4062 67.6703 11.4062C66.6234 11.4062 65.85 12.1328 65.8578 13.1719V18H63.5453ZM74.0234 12.0312C73.9219 11.4375 73.4062 11.0547 72.6328 11.0469C71.8828 11.0547 71.3125 11.4062 71.3203 11.9219C71.3125 12.3047 71.6094 12.6016 72.4141 12.7656L73.9297 13.0781C75.5781 13.4219 76.375 14.1562 76.3828 15.375C76.375 17.0469 74.875 18.1641 72.6172 18.1719C70.3281 18.1641 68.9844 17.1406 68.7891 15.4844H71.1172C71.2266 16.1484 71.7656 16.4922 72.6172 16.5C73.4609 16.4922 74.0234 16.1562 74.0234 15.6094C74.0234 15.1719 73.6641 14.8984 72.8672 14.7344L71.4609 14.4531C69.8438 14.1328 69.0156 13.3047 69.0234 12.0469C69.0156 10.4219 70.4141 9.40625 72.6016 9.40625C74.7422 9.40625 76.0703 10.4219 76.1953 12.0312H74.0234Z" fill="white"/>
</svg>
