<svg width="74" height="24" viewBox="0 0 74 24" fill="none" xmlns="http://www.w3.org/2000/svg">
<path d="M20 18V4M15 4H4M15 9H4M10 14H4M20 18.5C20 19.8807 18.433 21 16.5 21C14.567 21 13 19.8807 13 18.5C13 17.1193 14.567 16 16.5 16C18.433 16 20 17.1193 20 18.5Z" stroke="white" stroke-width="2" stroke-linecap="round"/>
<path d="M28.9667 6.68508H31.8618L35.0054 14.3536H35.138L38.2817 6.68508H41.1822V18H38.9004V10.5912H38.8065L35.8562 17.9503H34.2872L31.3369 10.5635H31.243V18H28.9667V6.68508ZM43.8011 21.1823C43.3536 21.1823 42.9282 21.1713 42.6243 21.1436L42.6299 19.3425C42.9227 19.3646 43.2763 19.3702 43.5636 19.3702C44.0276 19.3702 44.3978 19.3315 44.6796 18.5967L44.8122 18.2376L41.7625 9.51381H44.1989L45.9779 15.768H46.0663L47.8619 9.51381H50.3094L47 18.9337C46.5194 20.3039 45.5912 21.1823 43.8011 21.1823ZM56.2389 6.68508V18H53.924V6.68508H56.2389ZM57.4334 18V9.51381H59.7483V18H57.4334ZM57.3339 7.22652C57.3339 6.58011 57.903 6.04972 58.5936 6.04972C59.2842 6.04972 59.8533 6.58011 59.8533 7.22652C59.8533 7.87845 59.2842 8.40331 58.5936 8.40331C57.903 8.40331 57.3339 7.87845 57.3339 7.22652ZM65.7936 12.0387C65.6941 11.4365 65.1748 11.0552 64.4013 11.0552C63.6499 11.0552 63.0809 11.4088 63.0864 11.9171C63.0809 12.3039 63.3792 12.6022 64.1748 12.7735L65.7052 13.0829C67.3461 13.4199 68.1416 14.1547 68.1472 15.3812C68.1416 17.0497 66.6444 18.1657 64.3903 18.1657C62.0919 18.1657 60.7494 17.1436 60.5615 15.4862H62.882C62.998 16.1492 63.5339 16.4917 64.3903 16.4917C65.23 16.4917 65.788 16.1602 65.7936 15.6133C65.788 15.1713 65.4345 14.9006 64.6389 14.7348L63.2356 14.4586C61.6112 14.1381 60.7825 13.3039 60.788 12.0497C60.7825 10.4199 62.1803 9.40331 64.3626 9.40331C66.5118 9.40331 67.8378 10.4199 67.9593 12.0387H65.7936ZM73.4484 9.51381V11.2541H71.8462V15.3978C71.8462 16.0718 72.1777 16.232 72.6528 16.2486C72.8793 16.2541 73.2827 16.2265 73.5589 16.2099V18.0331C73.3158 18.0718 72.9014 18.116 72.3379 18.116C70.6583 18.116 69.5202 17.3646 69.5313 15.7127V11.2541H68.3655V9.51381H69.5313V7.48066H71.8462V9.51381H73.4484Z" fill="white"/>
</svg>
