<svg width="25" height="24" viewBox="0 0 25 24" fill="none" xmlns="http://www.w3.org/2000/svg">
<path d="M7.71717 10.907C7.47504 10.4714 7.09508 10.1284 6.63694 9.93202C6.17881 9.73564 5.66843 9.69695 5.18593 9.82202C4.70342 9.94709 4.27611 10.2288 3.97106 10.623C3.666 11.0172 3.50049 11.5016 3.50049 12C3.50049 12.4985 3.666 12.9828 3.97106 13.377C4.27611 13.7712 4.70342 14.053 5.18593 14.1781C5.66843 14.3031 6.17881 14.2644 6.63694 14.0681C7.09508 13.8717 7.47504 13.5287 7.71717 13.093M7.71717 10.907C7.89717 11.231 8.00017 11.603 8.00017 12C8.00017 12.397 7.89717 12.77 7.71717 13.093M7.71717 10.907L17.2832 5.59304M7.71717 13.093L17.2832 18.407M17.2832 5.59304C17.4234 5.85718 17.6149 6.0907 17.8465 6.27997C18.0781 6.46923 18.345 6.61043 18.6318 6.69532C18.9186 6.7802 19.2194 6.80706 19.5166 6.77433C19.8139 6.7416 20.1017 6.64994 20.3631 6.5047C20.6245 6.35946 20.8544 6.16356 21.0392 5.92845C21.2241 5.69334 21.3602 5.42375 21.4396 5.13542C21.519 4.8471 21.5402 4.54583 21.5018 4.24923C21.4635 3.95264 21.3663 3.66667 21.2162 3.40804C20.9202 2.89838 20.4362 2.52518 19.868 2.36865C19.2998 2.21213 18.6929 2.28478 18.1777 2.57099C17.6625 2.8572 17.2802 3.33412 17.1129 3.89923C16.9457 4.46434 17.0068 5.07252 17.2832 5.59304ZM17.2832 18.407C17.1396 18.6654 17.0484 18.9495 17.0147 19.2432C16.9809 19.5368 17.0054 19.8342 17.0866 20.1184C17.1678 20.4026 17.3042 20.668 17.4879 20.8995C17.6717 21.131 17.8993 21.324 18.1577 21.4675C18.416 21.6111 18.7002 21.7023 18.9938 21.736C19.2874 21.7698 19.5848 21.7453 19.869 21.6641C20.1532 21.5829 20.4186 21.4465 20.6501 21.2628C20.8816 21.079 21.0746 20.8514 21.2182 20.593C21.5081 20.0712 21.5788 19.4556 21.4148 18.8817C21.2508 18.3077 20.8655 17.8224 20.3437 17.5325C19.8219 17.2427 19.2063 17.1719 18.6323 17.3359C18.0584 17.4999 17.5731 17.8852 17.2832 18.407Z" stroke="white" stroke-width="1.5" stroke-linecap="round" stroke-linejoin="round"/>
</svg>
