<svg width="40" height="40" viewBox="0 0 40 40" fill="none" xmlns="http://www.w3.org/2000/svg">
<g clip-path="url(#clip0_266_2440)">
<path d="M20.0001 37.4089C29.6148 37.4089 37.4091 29.6147 37.4091 19.9999C37.4091 10.3852 29.6148 2.59094 20.0001 2.59094C10.3853 2.59094 2.59106 10.3852 2.59106 19.9999C2.59106 29.6147 10.3853 37.4089 20.0001 37.4089Z" fill="#FFC84D"/>
<path d="M20 31.795C21.1339 31.795 22.053 30.8758 22.053 29.742C22.053 28.6081 21.1339 27.689 20 27.689C18.8662 27.689 17.947 28.6081 17.947 29.742C17.947 30.8758 18.8662 31.795 20 31.795Z" fill="#FF6D00"/>
<path d="M26.811 16.7199H22.339C21.953 16.7199 21.602 16.4979 21.436 16.1489C21.27 15.7999 21.32 15.3869 21.564 15.0879L23.989 12.1129H22.219C21.666 12.1129 21.219 11.6649 21.219 11.1129C21.219 10.5609 21.666 10.1129 22.219 10.1129H26.094C26.48 10.1129 26.831 10.3349 26.997 10.6839C27.163 11.0329 27.113 11.4459 26.869 11.7449L24.444 14.7199H26.81C27.363 14.7199 27.81 15.1679 27.81 15.7199C27.81 16.2719 27.363 16.7199 26.81 16.7199H26.811Z" fill="#6391FF"/>
<path d="M35.2032 14.2709H29.1642C28.7782 14.2709 28.4272 14.0489 28.2612 13.6999C28.0952 13.3509 28.1452 12.9379 28.3892 12.6389L32.1292 8.04993H29.0032C28.4502 8.04993 28.0032 7.60193 28.0032 7.04993C28.0032 6.49793 28.4502 6.04993 29.0032 6.04993H34.2342C34.6202 6.04993 34.9712 6.27193 35.1372 6.62093C35.3032 6.96993 35.2522 7.38293 35.0092 7.68193L31.2692 12.2709H35.2032C35.7562 12.2709 36.2032 12.7189 36.2032 13.2709C36.2032 13.8229 35.7562 14.2709 35.2032 14.2709Z" fill="#6391FF"/>
<path d="M12.1941 21.5239C11.9471 21.4019 11.6631 21.6159 11.7181 21.8859C12.0231 23.3849 13.3131 24.5109 14.8581 24.5109C16.4031 24.5109 17.6931 23.3849 17.9981 21.8859C18.0531 21.6159 17.7691 21.4019 17.5221 21.5239C16.9831 21.7899 16.0651 22.1249 14.8581 22.1249C13.6511 22.1249 12.7331 21.7899 12.1941 21.5239Z" fill="black"/>
<path d="M27.806 21.5239C28.053 21.4019 28.337 21.6159 28.282 21.8859C27.977 23.3849 26.687 24.5109 25.142 24.5109C23.597 24.5109 22.307 23.3849 22.002 21.8859C21.947 21.6159 22.231 21.4019 22.478 21.5239C23.017 21.7899 23.935 22.1249 25.142 22.1249C26.348 22.1249 27.267 21.7899 27.806 21.5239Z" fill="black"/>
</g>
<defs>
<clipPath id="clip0_266_2440">
<rect width="40" height="40" fill="white"/>
</clipPath>
</defs>
</svg>
