<svg width="40" height="40" viewBox="0 0 40 40" fill="none" xmlns="http://www.w3.org/2000/svg">
<g clip-path="url(#clip0_266_2449)">
<path d="M19.132 18.934C19.659 19.282 20.34 19.282 20.867 18.934C22.541 17.828 26.188 15.186 27.758 12.229C29.829 8.32801 27.397 4.43701 24.183 4.43701C22.351 4.43701 21.248 5.39401 20.638 6.21801C20.317 6.65201 19.682 6.65201 19.361 6.21801C18.751 5.39501 17.649 4.43701 15.816 4.43701C12.602 4.43701 10.169 8.32801 12.241 12.229C13.811 15.186 17.459 17.828 19.132 18.934Z" fill="#EC4452"/>
<path d="M35.95 27.4C35.78 27.35 35.5899 27.58 35.3699 27.71C35.2899 27.74 35.2 27.77 35.13 27.77C34.49 27.82 33.78 27.7 33.06 27.49C30.02 26.58 26.69 23.91 26.69 23.91L23.7999 27.15L22.51 28.6C22.06 27.63 21.58 27.54 21.41 27.54C20.83 27.98 20.45 28.64 20.45 29.39C20.45 30.71 21.5799 31.77 22.9799 31.78C23.9599 34.01 26.19 35.56 28.78 35.56C31.37 35.56 33.6 34.01 34.58 31.78C35.98 31.77 37.11 30.71 37.11 29.39C37.11 28.56 36.65 27.82 35.95 27.4ZM27.7 29.14C27.55 29.44 27.1699 29.77 26.5499 29.77C26.0499 29.77 25.71 29.56 25.52 29.32C25.47 29.26 25.43 29.2 25.4 29.14C25.34 29.03 25.3899 28.94 25.4799 28.93C25.51 28.93 25.53 28.93 25.57 28.95C25.8 29.05 26.0699 29.16 26.5499 29.16C27.0199 29.16 27.29 29.05 27.53 28.95C27.66 28.89 27.76 28.99 27.7 29.14ZM29.4699 33.58C29.2299 33.58 28.62 33.46 28.58 32.92C28.5599 32.63 28.83 32.36 29.02 32.21C28.83 32.07 28.59 31.92 28.61 31.57C28.64 31.08 29.41 30.95 29.51 30.95C29.61 30.95 29.68 30.96 29.68 31.02C29.68 31.08 29.5999 31.1 29.49 31.14C29.16 31.24 29.03 31.43 29.03 31.57C29.03 31.83 29.28 31.95 29.42 32.04C29.53 32.12 29.6 32.13 29.61 32.2C29.61 32.25 29.53 32.28 29.42 32.35C29.3 32.43 29.0499 32.59 29.0499 32.88C29.0499 33.09 29.2299 33.26 29.49 33.36C29.65 33.42 29.71 33.45 29.7 33.51C29.69 33.57 29.61 33.58 29.4699 33.58ZM29.8899 29.14C29.82 28.99 29.9199 28.89 30.0599 28.95C30.2899 29.05 30.56 29.16 31.04 29.16C31.51 29.16 31.78 29.05 32.02 28.95C32.04 28.94 32.06 28.94 32.08 28.94C32.18 28.93 32.2399 29.02 32.1899 29.14C32.1499 29.21 32.0999 29.29 32.0299 29.36C31.8399 29.58 31.5 29.77 31.04 29.77C30.42 29.77 30.03 29.44 29.8899 29.14Z" fill="#FFCCA8"/>
<path d="M22.507 28.598L23.803 27.148L26.694 23.914C26.694 23.914 30.019 26.583 33.065 27.486C33.785 27.699 34.489 27.816 35.13 27.773C35.204 27.768 35.289 27.742 35.373 27.706C35.594 27.582 35.779 27.355 35.949 27.397C35.951 27.397 35.954 27.396 35.956 27.397C36.02 23.04 32.272 19.482 27.832 19.959C24.418 20.326 21.684 23.101 21.362 26.52C21.329 26.868 21.321 27.211 21.335 27.549C21.335 27.549 21.364 27.545 21.405 27.545C21.578 27.545 22.062 27.634 22.507 28.599V28.598Z" fill="#333333"/>
<path d="M25.3958 29.135C25.4248 29.197 25.4708 29.258 25.5198 29.319C25.7128 29.559 26.0498 29.769 26.5458 29.769C27.1668 29.769 27.5508 29.44 27.6958 29.135C27.7628 28.993 27.6598 28.889 27.5258 28.948C27.2928 29.05 27.0198 29.159 26.5458 29.159C26.0718 29.159 25.7988 29.05 25.5658 28.948C25.5338 28.934 25.5048 28.93 25.4788 28.933C25.3938 28.942 25.3448 29.026 25.3968 29.134L25.3958 29.135Z" fill="black"/>
<path d="M31.037 29.16C30.563 29.16 30.29 29.051 30.057 28.949C29.923 28.89 29.82 28.994 29.887 29.136C30.032 29.442 30.416 29.77 31.037 29.77C31.503 29.77 31.836 29.584 32.034 29.362C32.099 29.289 32.151 29.211 32.187 29.135C32.243 29.017 32.179 28.932 32.08 28.938C32.06 28.939 32.04 28.938 32.017 28.949C31.784 29.051 31.511 29.16 31.037 29.16Z" fill="black"/>
<path d="M29.494 33.362C29.232 33.258 29.047 33.093 29.047 32.875C29.047 32.593 29.301 32.426 29.417 32.351C29.534 32.277 29.609 32.249 29.606 32.196C29.603 32.133 29.531 32.115 29.416 32.042C29.275 31.951 29.027 31.826 29.027 31.572C29.027 31.433 29.159 31.237 29.493 31.137C29.602 31.104 29.678 31.082 29.677 31.019C29.676 30.956 29.611 30.946 29.507 30.946C29.406 30.946 28.635 31.082 28.606 31.567C28.584 31.922 28.826 32.068 29.02 32.214C28.826 32.361 28.558 32.625 28.578 32.92C28.616 33.456 29.23 33.583 29.467 33.583C29.607 33.583 29.692 33.571 29.701 33.511C29.71 33.451 29.65 33.423 29.493 33.361L29.494 33.362Z" fill="#EC6700"/>
<path d="M17.8739 24.466C17.0859 22.317 14.7319 19.944 11.6509 19.623C8.56892 19.303 7.18892 21.304 7.18892 21.304C2.16592 23.505 3.11092 33.891 3.11092 33.891C3.11092 33.891 3.56692 35.672 10.9709 35.672C15.4849 35.672 17.4549 35.01 18.3059 34.493C18.6959 34.256 18.9409 33.838 18.9509 33.382C19.0429 29.455 18.4619 26.066 17.8749 24.465L17.8739 24.466ZM16.7629 30.477C16.0669 33.179 13.7069 35.168 10.9029 35.168C7.91892 35.168 5.43992 32.917 4.92992 29.95C4.81392 29.271 4.97492 28.568 5.38692 28.016C5.66692 27.64 5.91692 27.449 5.91692 27.449C7.40792 26.12 7.87592 24.287 8.00792 23.567C8.02892 23.451 8.17492 23.411 8.25192 23.501C8.81792 24.16 10.5859 25.96 13.3049 26.365C15.8939 26.75 17.1099 28.47 16.7629 30.477Z" fill="#333333"/>
<path d="M13.3049 26.3651C10.5859 25.9611 8.81788 24.1601 8.25188 23.5011C8.17488 23.4111 8.02988 23.4501 8.00788 23.5671C7.87588 24.2871 7.40788 26.1211 5.91688 27.4491C5.91688 27.4491 5.66688 27.6401 5.38688 28.0161C4.97588 28.5681 4.81388 29.2721 4.92988 29.9501C5.43888 32.9171 7.91888 35.1681 10.9029 35.1681C13.7079 35.1681 16.0669 33.1791 16.7629 30.4771C17.1089 28.4701 15.8939 26.7491 13.3049 26.3651ZM9.83488 28.9001C9.68988 29.2061 9.30588 29.5341 8.68488 29.5341C8.06388 29.5341 7.67988 29.2051 7.53488 28.9001C7.46788 28.7581 7.57088 28.6541 7.70488 28.7131C7.93788 28.8151 8.21088 28.9241 8.68488 28.9241C9.15888 28.9241 9.43188 28.8151 9.66488 28.7131C9.79888 28.6541 9.90188 28.7581 9.83488 28.9001ZM10.9989 33.3491C10.8589 33.3491 10.7739 33.3371 10.7649 33.2771C10.7559 33.2171 10.8159 33.1891 10.9729 33.1271C11.2349 33.0231 11.4199 32.8581 11.4199 32.6411C11.4199 32.3591 11.1659 32.1911 11.0499 32.1171C10.9329 32.0431 10.8579 32.0151 10.8609 31.9621C10.8639 31.8991 10.9359 31.8821 11.0509 31.8081C11.1919 31.7171 11.4399 31.5921 11.4399 31.3381C11.4399 31.1991 11.3079 31.0041 10.9739 30.9021C10.8649 30.8691 10.7889 30.8481 10.7899 30.7841C10.7899 30.7211 10.8559 30.7111 10.9599 30.7111C11.0609 30.7111 11.8319 30.8471 11.8609 31.3321C11.8829 31.6871 11.6409 31.8331 11.4469 31.9801C11.6409 32.1271 11.9089 32.3901 11.8889 32.6861C11.8509 33.2221 11.2369 33.3491 10.9999 33.3491H10.9989ZM14.3259 28.9001C14.1809 29.2061 13.7969 29.5341 13.1759 29.5341C12.5549 29.5341 12.1709 29.2051 12.0259 28.9001C11.9589 28.7581 12.0619 28.6541 12.1959 28.7131C12.4289 28.8151 12.7019 28.9241 13.1759 28.9241C13.6499 28.9241 13.9229 28.8151 14.1559 28.7131C14.2899 28.6541 14.3929 28.7581 14.3259 28.9001Z" fill="#FFCCA8"/>
<path d="M9.66494 28.714C9.43194 28.816 9.15894 28.925 8.68494 28.925C8.21094 28.925 7.93794 28.816 7.70494 28.714C7.57094 28.655 7.46794 28.759 7.53494 28.901C7.67994 29.207 8.06394 29.535 8.68494 29.535C9.30594 29.535 9.68994 29.206 9.83494 28.901C9.90194 28.759 9.79894 28.655 9.66494 28.714Z" fill="black"/>
<path d="M14.1559 28.714C13.9229 28.816 13.6499 28.925 13.1759 28.925C12.7019 28.925 12.4289 28.816 12.1959 28.714C12.0619 28.655 11.9589 28.759 12.0259 28.901C12.1709 29.207 12.5549 29.535 13.1759 29.535C13.7969 29.535 14.1809 29.206 14.3259 28.901C14.3929 28.759 14.2899 28.655 14.1559 28.714Z" fill="black"/>
<path d="M11.446 31.9801C11.64 31.8331 11.882 31.6881 11.86 31.3321C11.831 30.8481 11.06 30.7111 10.959 30.7111C10.855 30.7111 10.79 30.7211 10.789 30.7841C10.789 30.8471 10.864 30.8691 10.973 30.9021C11.307 31.0031 11.439 31.1981 11.439 31.3381C11.439 31.5911 11.191 31.7171 11.05 31.8081C10.935 31.8821 10.863 31.8991 10.86 31.9621C10.858 32.0151 10.932 32.0431 11.049 32.1171C11.166 32.1911 11.419 32.3591 11.419 32.6411C11.419 32.8591 11.234 33.0231 10.972 33.1271C10.815 33.1891 10.754 33.2171 10.764 33.2771C10.773 33.3371 10.858 33.3491 10.998 33.3491C11.234 33.3491 11.849 33.2221 11.887 32.6861C11.908 32.3901 11.64 32.1261 11.445 31.9801H11.446Z" fill="#EC6700"/>
</g>
<defs>
<clipPath id="clip0_266_2449">
<rect width="40" height="40" fill="white"/>
</clipPath>
</defs>
</svg>
