<svg width="40" height="40" viewBox="0 0 40 40" fill="none" xmlns="http://www.w3.org/2000/svg">
<g clip-path="url(#clip0_266_2468)">
<path fill-rule="evenodd" clip-rule="evenodd" d="M7.96906 5.80694L24.7011 8.65194L17.2751 16.0779L4.13606 9.17994C3.63706 8.91794 3.53506 8.24694 3.93406 7.84894L5.04606 6.73794C5.81206 5.97194 6.90106 5.62494 7.96906 5.80694Z" fill="#93C9FF"/>
<path fill-rule="evenodd" clip-rule="evenodd" d="M31.3459 15.299L34.1929 32.031C34.3749 33.1 34.0269 34.19 33.2609 34.956L32.1499 36.066C31.7509 36.464 31.0809 36.362 30.8189 35.863L23.9219 22.724L31.3459 15.299Z" fill="#93C9FF"/>
<path fill-rule="evenodd" clip-rule="evenodd" d="M36.238 10.409L18.807 27.84V32.349C18.807 33.236 18.455 34.086 17.828 34.713L15.286 37.255C14.799 37.742 13.965 37.464 13.868 36.782L12.625 28.085C12.572 27.717 12.284 27.428 11.916 27.376L3.21896 26.133C2.53696 26.036 2.25896 25.202 2.74596 24.715L5.28796 22.174C5.91496 21.547 6.76496 21.195 7.65096 21.195H12.16L29.591 3.76396C31.443 2.03596 34.331 2.08596 36.122 3.87796C37.914 5.66796 37.965 8.55596 36.238 10.409Z" fill="#C8E1FF"/>
</g>
<defs>
<clipPath id="clip0_266_2468">
<rect width="40" height="40" fill="white"/>
</clipPath>
</defs>
</svg>
